#VRML V2.0 utf8
# 3D model generated by easyeda2kicad.py (https://github.com/uPesy/easyeda2kicad.py)

Shape{
    appearance Appearance {
        material  Material 	{
            diffuseColor 0.10980392156862745 0.10980392156862745 0.10980392156862745
            specularColor 0.0784313725490196 0.0784313725490196 0.0784313725490196
            ambientIntensity 0.2
            transparency 0
            shininess 0.5
        }
    }
    geometry IndexedFaceSet {
        ccw TRUE
        solid FALSE
        coord DEF co Coordinate {
            point [
                0.1926 0.013 0.0492, 0.148 0.013 0.0492, 0.1926 0.1181 0.0492, 0.0385 0.7283 0.0492, 0.2085 0.1181 0.0492, 0.9547 0.7283 0.0492, 0.2085 0.0 0.0492, 0.9547 -0.0007 0.0492, 0.0777 0.1066 0.0492, 0.0521 0.0179 0.0492, 0.0633 0.1047 0.0492, 0.05 0.0191 0.0492, 0.05 0.099 0.0492, 0.05 0.1149 0.0492, 0.0893 0.1053 0.0492, 0.0981 0.1021 0.0492, 0.1065 0.0965 0.0492, 0.1136 0.0886 0.0492, 0.1184 0.0794 0.0492, 0.1215 0.0667 0.0492, 0.122 0.0578 0.0492, 0.1208 0.045 0.0492, 0.1176 0.0349 0.0492, 0.0803 0.0115 0.0492, 0.1072 0.0209 0.0492, 0.0913 0.0127 0.0492, 0.1 0.0159 0.0492, 0.1127 0.0267 0.0492, 0.0647 0.0133 0.0492, 0.1086 0.004 0.0492, 0.148 0.0 0.0492, 0.0971 0.0001 0.0492, 0.0895 -0.0007 0.0492, 0.1247 0.0981 0.0492, 0.1145 0.108 0.0492, 0.1034 0.1145 0.0492, 0.0905 0.1184 0.0492, 0.1182 0.0102 0.0492, 0.127 0.0196 0.0492, 0.1333 0.0309 0.0492, 0.1368 0.0434 0.0492, 0.1379 0.0568 0.0492, 0.1362 0.0736 0.0492, 0.1317 0.087 0.0492, 0.0778 0.1196 0.0492, 0.0637 0.1186 0.0492, 0.05 0.0061 0.0492, 0.0626 0.001 0.0492, 0.0385 -0.0007 0.0492, 0.0745 -0.0007 0.0492, 0.0385 -0.7283 0.0492, 0.0793 -0.0014 0.0492, 0.9547 -0.7283 0.0492, 0.0825 -0.0014 0.0492, -0.0335 0.1181 0.0492, -0.9547 0.7283 0.0492, 0.027 0.1181 0.0492, -0.1632 -0.0 0.0492, -0.1486 0.0324 0.0492, -0.1418 0.0218 0.0492, -0.2078 0.1181 0.0492, -0.2236 0.1181 0.0492, -0.1471 0.0902 0.0492, -0.1521 0.0786 0.0492, -0.9547 -0.0007 0.0492, 0.0111 0.1051 0.0492, 0.0111 0.0663 0.0492, -0.0335 0.1051 0.0492, -0.0306 0.0663 0.0492, -0.1321 0.0125 0.0492, -0.1198 0.0053 0.0492, -0.1062 0.0013 0.0492, -0.0306 0.0533 0.0492, -0.0594 -0.0 0.0492, -0.0594 0.1181 0.0492, -0.1237 0.1114 0.0492, -0.1354 0.1038 0.0492, -0.14 0.0996 0.0492, -0.1543 0.0663 0.0492, -0.1545 0.0605 0.0492, -0.1529 0.0447 0.0492, -0.0928 0.1181 0.0492, -0.1098 0.1163 0.0492, -0.2697 -0.0 0.0492, -0.2525 -0.0 0.0492, -0.0916 -0.0 0.0492, 0.0111 0.0533 0.0492, 0.0111 0.013 0.0492, -0.0364 0.013 0.0492, -0.0364 -0.0 0.0492, 0.027 0.0 0.0492, -0.2405 0.0331 0.0492, -0.1917 0.0331 0.0492, -0.1804 -0.0 0.0492, -0.9547 -0.7283 0.0492, 0.8327 0.7677 0.3642, 0.9941 0.7677 0.3642, 0.8327 0.7677 0.2854, 0.9941 0.7677 0.2854, 0.6673 0.7677 0.2854, 0.3327 0.7677 0.2854, 0.6673 0.7677 0.3642, 0.3327 0.7677 0.3642, 0.1673 0.7677 0.2854, -0.1673 0.7677 0.2854, 0.1673 0.7677 0.3642, -0.1673 0.7677 0.3642, -0.3327 0.7677 0.2854, -0.6673 0.7677 0.2854, -0.3327 0.7677 0.3642, -0.6673 0.7677 0.3642, -0.9941 0.7677 0.2854, -0.9941 0.7677 0.3642, -0.8327 0.7677 0.2854, -0.8327 0.7677 0.3642, 0.8327 -0.7677 0.2854, 0.9941 -0.7677 0.2854, 0.8327 -0.7677 0.3642, 0.9941 -0.7677 0.3642, 0.6673 -0.7677 0.3642, 0.3327 -0.7677 0.3642, 0.6673 -0.7677 0.2854, 0.3327 -0.7677 0.2854, 0.1673 -0.7677 0.3642, -0.1673 -0.7677 0.3642, 0.1673 -0.7677 0.2854, -0.1673 -0.7677 0.2854, -0.9941 -0.7677 0.3642, -0.9941 -0.7677 0.2854, -0.8327 -0.7677 0.3642, -0.8327 -0.7677 0.2854, -0.3327 -0.7677 0.3642, -0.6673 -0.7677 0.3642, -0.3327 -0.7677 0.2854, -0.6673 -0.7677 0.2854, -0.9547 -0.6086 0.6004, -0.7257 -0.4359 0.6004, -0.7555 -0.4236 0.6004, -0.7812 -0.4039 0.6004, -0.8009 -0.3782 0.6004, -0.8133 -0.3483 0.6004, -0.8175 -0.3162 0.6004, -0.8133 -0.2842 0.6004, -0.9547 0.7283 0.6004, -0.8009 -0.2543 0.6004, -0.5696 -0.3162 0.6004, 0.9547 -0.6086 0.6004, -0.5739 -0.2842 0.6004, 0.9547 0.7283 0.6004, -0.5863 -0.2543 0.6004, -0.6059 -0.2286 0.6004, -0.5739 -0.3483 0.6004, -0.5863 -0.3782 0.6004, -0.6059 -0.4039 0.6004, -0.6316 -0.4236 0.6004, -0.6615 -0.4359 0.6004, -0.6936 -0.4402 0.6004, -0.7812 -0.2286 0.6004, -0.7555 -0.2089 0.6004, -0.7257 -0.1965 0.6004, -0.6936 -0.1923 0.6004, -0.6615 -0.1965 0.6004, -0.6316 -0.2089 0.6004, 0.9709 -0.7445 0.5033, -0.9709 -0.7445 0.5033, -0.9709 -0.7445 0.5033
            ]
        }
        coordIndex [
            0,1,2,-1,2,1,3,-1,2,3,4,-1,4,3,5,-1,4,5,6,-1,6,5,7,-1,8,9,10,-1,10,9,11,-1,10,11,12,-1,12,11,3,-1,12,3,13,-1,8,14,9,-1,9,14,15,-1,9,15,16,-1,16,17,9,-1,9,17,18,-1,9,18,19,-1,19,20,9,-1,9,20,21,-1,9,21,22,-1,23,24,25,-1,25,24,26,-1,22,27,9,-1,9,27,24,-1,9,24,28,-1,28,24,23,-1,29,30,31,-1,31,30,32,-1,33,34,3,-1,3,34,35,-1,3,35,36,-1,29,37,30,-1,30,37,38,-1,30,38,1,-1,1,38,39,-1,1,39,40,-1,40,41,1,-1,1,41,42,-1,1,42,3,-1,3,42,43,-1,3,43,33,-1,36,44,3,-1,3,44,45,-1,3,45,13,-1,46,47,48,-1,48,47,49,-1,48,49,50,-1,50,49,51,-1,50,51,52,-1,52,51,53,-1,52,53,7,-1,7,53,32,-1,7,32,6,-1,6,32,30,-1,54,55,56,-1,56,55,3,-1,56,3,48,-1,48,3,11,-1,48,11,46,-1,57,58,59,-1,60,61,55,-1,60,62,63,-1,55,61,64,-1,65,66,67,-1,67,66,68,-1,59,69,57,-1,57,69,70,-1,57,70,71,-1,72,73,68,-1,68,73,74,-1,68,74,67,-1,67,74,54,-1,75,76,60,-1,60,76,77,-1,60,77,62,-1,63,78,60,-1,60,78,79,-1,60,79,57,-1,57,79,80,-1,57,80,58,-1,54,74,55,-1,55,74,81,-1,55,81,60,-1,60,81,82,-1,60,82,75,-1,83,84,48,-1,48,85,73,-1,86,87,72,-1,72,87,88,-1,72,88,73,-1,73,88,89,-1,73,89,48,-1,48,89,90,-1,48,90,56,-1,91,92,84,-1,84,92,93,-1,84,93,48,-1,48,93,57,-1,48,57,85,-1,85,57,71,-1,50,94,48,-1,48,94,64,-1,48,64,83,-1,83,64,61,-1,95,96,97,-1,97,96,98,-1,99,100,101,-1,101,100,102,-1,103,104,105,-1,105,104,106,-1,107,108,109,-1,109,108,110,-1,111,112,113,-1,113,112,114,-1,115,116,117,-1,117,116,118,-1,119,120,121,-1,121,120,122,-1,123,124,125,-1,125,124,126,-1,127,128,129,-1,129,128,130,-1,131,132,133,-1,133,132,134,-1,128,127,111,-1,111,127,112,-1,98,96,116,-1,116,96,118,-1,135,136,137,-1,137,138,135,-1,135,138,139,-1,135,139,140,-1,140,141,135,-1,135,141,142,-1,135,142,143,-1,143,142,144,-1,145,146,147,-1,147,146,148,-1,147,148,149,-1,149,148,150,-1,145,151,146,-1,146,151,152,-1,146,152,153,-1,153,154,146,-1,146,154,155,-1,146,155,135,-1,135,155,156,-1,135,156,136,-1,144,157,143,-1,143,157,158,-1,143,158,159,-1,159,160,143,-1,143,160,161,-1,143,161,148,-1,148,161,162,-1,148,162,150,-1,94,128,64,-1,64,128,111,-1,64,111,55,-1,130,128,94,-1,125,126,50,-1,50,126,133,-1,50,133,94,-1,94,133,134,-1,94,134,130,-1,116,115,52,-1,52,115,121,-1,52,121,50,-1,50,121,122,-1,50,122,125,-1,97,98,5,-1,111,113,55,-1,55,113,108,-1,55,108,3,-1,3,108,107,-1,3,107,104,-1,104,103,3,-1,3,103,100,-1,3,100,5,-1,5,100,99,-1,5,99,97,-1,5,98,7,-1,7,98,116,-1,7,116,52,-1,96,148,118,-1,118,148,146,-1,118,146,163,-1,101,148,95,-1,95,148,96,-1,101,102,148,-1,148,102,105,-1,148,105,143,-1,143,105,106,-1,143,106,109,-1,109,110,143,-1,143,110,114,-1,143,114,112,-1,127,129,164,-1,164,129,132,-1,132,131,164,-1,164,131,124,-1,164,124,163,-1,163,124,123,-1,163,123,120,-1,120,119,163,-1,163,119,117,-1,163,117,118,-1,143,112,135,-1,135,112,127,-1,135,127,164,-1,163,146,164,-1,164,146,135,-1,
        ]
    }
}
Shape{
    appearance Appearance {
        material  Material 	{
            diffuseColor 0.4117647058823529 0.4117647058823529 0.4117647058823529
            specularColor 0.16470588235294117 0.16470588235294117 0.16470588235294117
            ambientIntensity 0.2
            transparency 0
            shininess 0.5
        }
    }
    geometry IndexedFaceSet {
        ccw TRUE
        solid FALSE
        coord DEF co Coordinate {
            point [
                -0.6936 -0.1923 0.5925, -0.6936 -0.1923 0.6004, -0.7257 -0.1965 0.5925, -0.7257 -0.1965 0.6004, -0.7555 -0.2089 0.5925, -0.7555 -0.2089 0.6004, -0.7812 -0.2286 0.5925, -0.7812 -0.2286 0.6004, -0.8009 -0.2543 0.5925, -0.8009 -0.2543 0.6004, -0.8133 -0.2842 0.5925, -0.8133 -0.2842 0.6004, -0.8175 -0.3162 0.5925, -0.8175 -0.3162 0.6004, -0.8133 -0.3483 0.5925, -0.8133 -0.3483 0.6004, -0.8009 -0.3782 0.5925, -0.8009 -0.3782 0.6004, -0.7812 -0.4039 0.5925, -0.7812 -0.4039 0.6004, -0.7555 -0.4236 0.5925, -0.7555 -0.4236 0.6004, -0.7257 -0.4359 0.5925, -0.7257 -0.4359 0.6004, -0.6936 -0.4402 0.5925, -0.6936 -0.4402 0.6004, -0.6615 -0.4359 0.5925, -0.6615 -0.4359 0.6004, -0.6316 -0.4236 0.5925, -0.6316 -0.4236 0.6004, -0.6059 -0.4039 0.5925, -0.6059 -0.4039 0.6004, -0.5863 -0.3782 0.5925, -0.5863 -0.3782 0.6004, -0.5739 -0.3483 0.5925, -0.5739 -0.3483 0.6004, -0.5696 -0.3162 0.5925, -0.5696 -0.3162 0.6004, -0.5739 -0.2842 0.5925, -0.5739 -0.2842 0.6004, -0.5863 -0.2543 0.5925, -0.5863 -0.2543 0.6004, -0.6059 -0.2286 0.5925, -0.6059 -0.2286 0.6004, -0.6316 -0.2089 0.5925, -0.6316 -0.2089 0.6004, -0.6615 -0.1965 0.5925, -0.6615 -0.1965 0.6004, -0.6936 -0.3162 0.5925, -0.6936 -0.3162 0.5925
            ]
        }
        coordIndex [
            0,1,2,-1,2,1,3,-1,2,3,4,-1,4,3,5,-1,4,5,6,-1,6,5,7,-1,6,7,8,-1,8,7,9,-1,8,9,10,-1,10,9,11,-1,10,11,12,-1,12,11,13,-1,12,13,14,-1,14,13,15,-1,14,15,16,-1,16,15,17,-1,16,17,18,-1,18,17,19,-1,18,19,20,-1,20,19,21,-1,20,21,22,-1,22,21,23,-1,22,23,24,-1,24,23,25,-1,24,25,26,-1,26,25,27,-1,26,27,28,-1,28,27,29,-1,28,29,30,-1,30,29,31,-1,30,31,32,-1,32,31,33,-1,32,33,34,-1,34,33,35,-1,34,35,36,-1,36,35,37,-1,36,37,38,-1,38,37,39,-1,38,39,40,-1,40,39,41,-1,40,41,42,-1,42,41,43,-1,42,43,44,-1,44,43,45,-1,44,45,46,-1,46,45,47,-1,46,47,0,-1,0,47,1,-1,44,46,48,-1,48,46,0,-1,48,0,2,-1,38,40,48,-1,48,40,42,-1,48,42,44,-1,32,34,48,-1,48,34,36,-1,48,36,38,-1,26,28,48,-1,48,28,30,-1,48,30,32,-1,20,22,48,-1,48,22,24,-1,48,24,26,-1,14,16,48,-1,48,16,18,-1,48,18,20,-1,8,10,48,-1,48,10,12,-1,48,12,14,-1,2,4,48,-1,48,4,6,-1,48,6,8,-1,
        ]
    }
}
Shape{
    appearance Appearance {
        material  Material 	{
            diffuseColor 0.7764705882352941 0.7568627450980392 0.7372549019607844
            specularColor 0.38823529411764707 0.3764705882352941 0.3686274509803922
            ambientIntensity 0.2
            transparency 0
            shininess 0.5
        }
    }
    geometry IndexedFaceSet {
        ccw TRUE
        solid FALSE
        coord DEF co Coordinate {
            point [
                -0.6673 -1.1811 0.0787, -0.8327 -1.1811 0.0787, -0.6673 -1.1811 -0.0, -0.8327 -1.1811 -0.0, -0.8327 -0.8928 0.2854, -0.8327 -0.7677 0.2854, -0.6673 -0.8928 0.2854, -0.6673 -0.7677 0.2854, -0.6673 -0.8928 0.3642, -0.6673 -0.7677 0.3642, -0.8327 -0.8928 0.3642, -0.8327 -0.7677 0.3642, -0.8327 -0.8975 0.2849, -0.6673 -0.8975 0.2849, -0.8327 -0.9018 0.2832, -0.6673 -0.9018 0.2832, -0.8327 -0.9057 0.2806, -0.6673 -0.9057 0.2806, -0.8327 -0.9089 0.2771, -0.6673 -0.9089 0.2771, -0.8327 -0.9111 0.273, -0.6673 -0.9111 0.273, -0.8327 -0.9123 0.2685, -0.6673 -0.9123 0.2685, -0.6673 -0.9161 0.3614, -0.6673 -0.938 0.3532, -0.6673 -0.9574 0.34, -0.6673 -0.9731 0.3227, -0.6673 -0.9843 0.3021, -0.6673 -0.9903 0.2794, -0.8327 -0.9903 0.2794, -0.8327 -0.9843 0.3021, -0.8327 -0.9731 0.3227, -0.8327 -0.9574 0.34, -0.8327 -0.938 0.3532, -0.8327 -0.9161 0.3614, -0.8327 -0.9381 0.0847, -0.6673 -0.9381 0.0847, -0.6673 -1.0161 0.0957, -0.8327 -1.0161 0.0957, -0.6673 -1.0356 -0.0, -0.8327 -1.0356 -0.0, -0.8327 -1.0123 0.0028, -0.6673 -1.0123 0.0028, -0.8327 -0.9904 0.011, -0.6673 -0.9904 0.011, -0.8327 -0.971 0.0241, -0.6673 -0.971 0.0241, -0.8327 -0.9553 0.0415, -0.6673 -0.9553 0.0415, -0.8327 -0.9441 0.0621, -0.6673 -0.9441 0.0621, -0.6673 -1.0356 0.0787, -0.6673 -1.0309 0.0793, -0.6673 -1.0265 0.0809, -0.6673 -1.0227 0.0836, -0.6673 -1.0195 0.087, -0.6673 -1.0173 0.0912, -0.8327 -1.0173 0.0912, -0.8327 -1.0195 0.087, -0.8327 -1.0227 0.0836, -0.8327 -1.0265 0.0809, -0.8327 -1.0309 0.0793, -0.8327 -1.0356 0.0787, -0.1673 -1.1811 0.0787, -0.3327 -1.1811 0.0787, -0.1673 -1.1811 -0.0, -0.3327 -1.1811 -0.0, -0.3327 -0.8928 0.2854, -0.3327 -0.7677 0.2854, -0.1673 -0.8928 0.2854, -0.1673 -0.7677 0.2854, -0.1673 -0.8928 0.3642, -0.1673 -0.7677 0.3642, -0.3327 -0.8928 0.3642, -0.3327 -0.7677 0.3642, -0.3327 -0.8975 0.2849, -0.1673 -0.8975 0.2849, -0.3327 -0.9018 0.2832, -0.1673 -0.9018 0.2832, -0.3327 -0.9057 0.2806, -0.1673 -0.9057 0.2806, -0.3327 -0.9089 0.2771, -0.1673 -0.9089 0.2771, -0.3327 -0.9111 0.273, -0.1673 -0.9111 0.273, -0.3327 -0.9123 0.2685, -0.1673 -0.9123 0.2685, -0.1673 -0.9161 0.3614, -0.1673 -0.938 0.3532, -0.1673 -0.9574 0.34, -0.1673 -0.9731 0.3227, -0.1673 -0.9843 0.3021, -0.1673 -0.9903 0.2794, -0.3327 -0.9903 0.2794, -0.3327 -0.9843 0.3021, -0.3327 -0.9731 0.3227, -0.3327 -0.9574 0.34, -0.3327 -0.938 0.3532, -0.3327 -0.9161 0.3614, -0.3327 -0.9381 0.0847, -0.1673 -0.9381 0.0847, -0.1673 -1.0161 0.0957, -0.3327 -1.0161 0.0957, -0.1673 -1.0356 -0.0, -0.3327 -1.0356 -0.0, -0.3327 -1.0123 0.0028, -0.1673 -1.0123 0.0028, -0.3327 -0.9904 0.011, -0.1673 -0.9904 0.011, -0.3327 -0.971 0.0241, -0.1673 -0.971 0.0241, -0.3327 -0.9553 0.0415, -0.1673 -0.9553 0.0415, -0.3327 -0.9441 0.0621, -0.1673 -0.9441 0.0621, -0.1673 -1.0356 0.0787, -0.1673 -1.0309 0.0793, -0.1673 -1.0265 0.0809, -0.1673 -1.0227 0.0836, -0.1673 -1.0195 0.087, -0.1673 -1.0173 0.0912, -0.3327 -1.0173 0.0912, -0.3327 -1.0195 0.087, -0.3327 -1.0227 0.0836, -0.3327 -1.0265 0.0809, -0.3327 -1.0309 0.0793, -0.3327 -1.0356 0.0787, 0.3327 -1.1811 0.0787, 0.1673 -1.1811 0.0787, 0.3327 -1.1811 -0.0, 0.1673 -1.1811 -0.0, 0.1673 -0.8928 0.2854, 0.1673 -0.7677 0.2854, 0.3327 -0.8928 0.2854, 0.3327 -0.7677 0.2854, 0.3327 -0.8928 0.3642, 0.3327 -0.7677 0.3642, 0.1673 -0.8928 0.3642, 0.1673 -0.7677 0.3642, 0.1673 -0.8975 0.2849, 0.3327 -0.8975 0.2849, 0.1673 -0.9018 0.2832, 0.3327 -0.9018 0.2832, 0.1673 -0.9057 0.2806, 0.3327 -0.9057 0.2806, 0.1673 -0.9089 0.2771, 0.3327 -0.9089 0.2771, 0.1673 -0.9111 0.273, 0.3327 -0.9111 0.273, 0.1673 -0.9123 0.2685, 0.3327 -0.9123 0.2685, 0.3327 -0.9161 0.3614, 0.3327 -0.938 0.3532, 0.3327 -0.9574 0.34, 0.3327 -0.9731 0.3227, 0.3327 -0.9843 0.3021, 0.3327 -0.9903 0.2794, 0.1673 -0.9903 0.2794, 0.1673 -0.9843 0.3021, 0.1673 -0.9731 0.3227, 0.1673 -0.9574 0.34, 0.1673 -0.938 0.3532, 0.1673 -0.9161 0.3614, 0.1673 -0.9381 0.0847, 0.3327 -0.9381 0.0847, 0.3327 -1.0161 0.0957, 0.1673 -1.0161 0.0957, 0.3327 -1.0356 -0.0, 0.1673 -1.0356 -0.0, 0.1673 -1.0123 0.0028, 0.3327 -1.0123 0.0028, 0.1673 -0.9904 0.011, 0.3327 -0.9904 0.011, 0.1673 -0.971 0.0241, 0.3327 -0.971 0.0241, 0.1673 -0.9553 0.0415, 0.3327 -0.9553 0.0415, 0.1673 -0.9441 0.0621, 0.3327 -0.9441 0.0621, 0.3327 -1.0356 0.0787, 0.3327 -1.0309 0.0793, 0.3327 -1.0265 0.0809, 0.3327 -1.0227 0.0836, 0.3327 -1.0195 0.087, 0.3327 -1.0173 0.0912, 0.1673 -1.0173 0.0912, 0.1673 -1.0195 0.087, 0.1673 -1.0227 0.0836, 0.1673 -1.0265 0.0809, 0.1673 -1.0309 0.0793, 0.1673 -1.0356 0.0787, 0.8327 -1.1811 0.0787, 0.6673 -1.1811 0.0787, 0.8327 -1.1811 -0.0, 0.6673 -1.1811 -0.0, 0.6673 -0.8928 0.2854, 0.6673 -0.7677 0.2854, 0.8327 -0.8928 0.2854, 0.8327 -0.7677 0.2854, 0.8327 -0.8928 0.3642, 0.8327 -0.7677 0.3642, 0.6673 -0.8928 0.3642, 0.6673 -0.7677 0.3642, 0.6673 -0.8975 0.2849, 0.8327 -0.8975 0.2849, 0.6673 -0.9018 0.2832, 0.8327 -0.9018 0.2832, 0.6673 -0.9057 0.2806, 0.8327 -0.9057 0.2806, 0.6673 -0.9089 0.2771, 0.8327 -0.9089 0.2771, 0.6673 -0.9111 0.273, 0.8327 -0.9111 0.273, 0.6673 -0.9123 0.2685, 0.8327 -0.9123 0.2685, 0.8327 -0.9161 0.3614, 0.8327 -0.938 0.3532, 0.8327 -0.9574 0.34, 0.8327 -0.9731 0.3227, 0.8327 -0.9843 0.3021, 0.8327 -0.9903 0.2794, 0.6673 -0.9903 0.2794, 0.6673 -0.9843 0.3021, 0.6673 -0.9731 0.3227, 0.6673 -0.9574 0.34, 0.6673 -0.938 0.3532, 0.6673 -0.9161 0.3614, 0.6673 -0.9381 0.0847, 0.8327 -0.9381 0.0847, 0.8327 -1.0161 0.0957, 0.6673 -1.0161 0.0957, 0.8327 -1.0356 -0.0, 0.6673 -1.0356 -0.0, 0.6673 -1.0123 0.0028, 0.8327 -1.0123 0.0028, 0.6673 -0.9904 0.011, 0.8327 -0.9904 0.011, 0.6673 -0.971 0.0241, 0.8327 -0.971 0.0241, 0.6673 -0.9553 0.0415, 0.8327 -0.9553 0.0415, 0.6673 -0.9441 0.0621, 0.8327 -0.9441 0.0621, 0.8327 -1.0356 0.0787, 0.8327 -1.0309 0.0793, 0.8327 -1.0265 0.0809, 0.8327 -1.0227 0.0836, 0.8327 -1.0195 0.087, 0.8327 -1.0173 0.0912, 0.6673 -1.0173 0.0912, 0.6673 -1.0195 0.087, 0.6673 -1.0227 0.0836, 0.6673 -1.0265 0.0809, 0.6673 -1.0309 0.0793, 0.6673 -1.0356 0.0787, -0.8327 1.1811 0.0787, -0.6673 1.1811 0.0787, -0.8327 1.1811 -0.0, -0.6673 1.1811 -0.0, -0.8327 0.8928 0.3642, -0.8327 0.7677 0.3642, -0.6673 0.8928 0.3642, -0.6673 0.7677 0.3642, -0.6673 0.8928 0.2854, -0.6673 0.7677 0.2854, -0.8327 0.8928 0.2854, -0.8327 0.7677 0.2854, -0.6673 0.9903 0.2794, -0.8327 0.9903 0.2794, -0.8327 0.9843 0.3021, -0.6673 0.9843 0.3021, -0.8327 0.9731 0.3227, -0.6673 0.9731 0.3227, -0.8327 0.9574 0.34, -0.6673 0.9574 0.34, -0.8327 0.938 0.3532, -0.6673 0.938 0.3532, -0.8327 0.9161 0.3614, -0.6673 0.9161 0.3614, -0.6673 0.9123 0.2685, -0.6673 0.9111 0.273, -0.6673 0.9089 0.2771, -0.6673 0.9057 0.2806, -0.6673 0.9018 0.2832, -0.6673 0.8975 0.2849, -0.8327 0.8975 0.2849, -0.8327 0.9018 0.2832, -0.8327 0.9057 0.2806, -0.8327 0.9089 0.2771, -0.8327 0.9111 0.273, -0.8327 0.9123 0.2685, -0.8327 1.0161 0.0957, -0.6673 1.0161 0.0957, -0.6673 0.9381 0.0847, -0.8327 0.9381 0.0847, -0.8327 1.0173 0.0912, -0.6673 1.0173 0.0912, -0.8327 1.0195 0.087, -0.6673 1.0195 0.087, -0.8327 1.0227 0.0836, -0.6673 1.0227 0.0836, -0.8327 1.0265 0.0809, -0.6673 1.0265 0.0809, -0.8327 1.0309 0.0793, -0.6673 1.0309 0.0793, -0.8327 1.0356 0.0787, -0.6673 1.0356 0.0787, -0.6673 0.9441 0.0621, -0.6673 0.9553 0.0415, -0.6673 0.971 0.0241, -0.6673 0.9904 0.011, -0.6673 1.0123 0.0028, -0.6673 1.0356 -0.0, -0.8327 1.0356 -0.0, -0.8327 1.0123 0.0028, -0.8327 0.9904 0.011, -0.8327 0.971 0.0241, -0.8327 0.9553 0.0415, -0.8327 0.9441 0.0621, -0.3327 1.1811 0.0787, -0.1673 1.1811 0.0787, -0.3327 1.1811 -0.0, -0.1673 1.1811 -0.0, -0.3327 0.7677 0.2854, -0.3327 0.8928 0.2854, -0.1673 0.7677 0.2854, -0.1673 0.8928 0.2854, -0.1673 0.7677 0.3642, -0.1673 0.8928 0.3642, -0.3327 0.7677 0.3642, -0.3327 0.8928 0.3642, -0.3327 0.9123 0.2685, -0.1673 0.9123 0.2685, -0.3327 0.9111 0.273, -0.1673 0.9111 0.273, -0.3327 0.9089 0.2771, -0.1673 0.9089 0.2771, -0.3327 0.9057 0.2806, -0.1673 0.9057 0.2806, -0.3327 0.9018 0.2832, -0.1673 0.9018 0.2832, -0.3327 0.8975 0.2849, -0.1673 0.8975 0.2849, -0.1673 0.9903 0.2794, -0.1673 0.9843 0.3021, -0.1673 0.9731 0.3227, -0.1673 0.9574 0.34, -0.1673 0.938 0.3532, -0.1673 0.9161 0.3614, -0.3327 0.9161 0.3614, -0.3327 0.938 0.3532, -0.3327 0.9574 0.34, -0.3327 0.9731 0.3227, -0.3327 0.9843 0.3021, -0.3327 0.9903 0.2794, -0.3327 0.9381 0.0847, -0.1673 0.9381 0.0847, -0.1673 1.0161 0.0957, -0.3327 1.0161 0.0957, -0.3327 0.9441 0.0621, -0.1673 0.9441 0.0621, -0.3327 0.9553 0.0415, -0.1673 0.9553 0.0415, -0.3327 0.971 0.0241, -0.1673 0.971 0.0241, -0.3327 0.9904 0.011, -0.1673 0.9904 0.011, -0.3327 1.0123 0.0028, -0.1673 1.0123 0.0028, -0.3327 1.0356 -0.0, -0.1673 1.0356 -0.0, -0.1673 1.0173 0.0912, -0.1673 1.0195 0.087, -0.1673 1.0227 0.0836, -0.1673 1.0265 0.0809, -0.1673 1.0309 0.0793, -0.1673 1.0356 0.0787, -0.3327 1.0356 0.0787, -0.3327 1.0309 0.0793, -0.3327 1.0265 0.0809, -0.3327 1.0227 0.0836, -0.3327 1.0195 0.087, -0.3327 1.0173 0.0912, 0.1673 1.1811 0.0787, 0.3327 1.1811 0.0787, 0.1673 1.1811 -0.0, 0.3327 1.1811 -0.0, 0.1673 0.7677 0.2854, 0.1673 0.8928 0.2854, 0.3327 0.7677 0.2854, 0.3327 0.8928 0.2854, 0.3327 0.7677 0.3642, 0.3327 0.8928 0.3642, 0.1673 0.7677 0.3642, 0.1673 0.8928 0.3642, 0.1673 0.9123 0.2685, 0.3327 0.9123 0.2685, 0.1673 0.9111 0.273, 0.3327 0.9111 0.273, 0.1673 0.9089 0.2771, 0.3327 0.9089 0.2771, 0.1673 0.9057 0.2806, 0.3327 0.9057 0.2806, 0.1673 0.9018 0.2832, 0.3327 0.9018 0.2832, 0.1673 0.8975 0.2849, 0.3327 0.8975 0.2849, 0.3327 0.9903 0.2794, 0.3327 0.9843 0.3021, 0.3327 0.9731 0.3227, 0.3327 0.9574 0.34, 0.3327 0.938 0.3532, 0.3327 0.9161 0.3614, 0.1673 0.9161 0.3614, 0.1673 0.938 0.3532, 0.1673 0.9574 0.34, 0.1673 0.9731 0.3227, 0.1673 0.9843 0.3021, 0.1673 0.9903 0.2794, 0.1673 0.9381 0.0847, 0.3327 0.9381 0.0847, 0.3327 1.0161 0.0957, 0.1673 1.0161 0.0957, 0.1673 0.9441 0.0621, 0.3327 0.9441 0.0621, 0.1673 0.9553 0.0415, 0.3327 0.9553 0.0415, 0.1673 0.971 0.0241, 0.3327 0.971 0.0241, 0.1673 0.9904 0.011, 0.3327 0.9904 0.011, 0.1673 1.0123 0.0028, 0.3327 1.0123 0.0028, 0.1673 1.0356 -0.0, 0.3327 1.0356 -0.0, 0.3327 1.0173 0.0912, 0.3327 1.0195 0.087, 0.3327 1.0227 0.0836, 0.3327 1.0265 0.0809, 0.3327 1.0309 0.0793, 0.3327 1.0356 0.0787, 0.1673 1.0356 0.0787, 0.1673 1.0309 0.0793, 0.1673 1.0265 0.0809, 0.1673 1.0227 0.0836, 0.1673 1.0195 0.087, 0.1673 1.0173 0.0912, 0.6673 1.1811 0.0787, 0.8327 1.1811 0.0787, 0.6673 1.1811 -0.0, 0.8327 1.1811 -0.0, 0.6673 0.7677 0.2854, 0.6673 0.8928 0.2854, 0.8327 0.7677 0.2854, 0.8327 0.8928 0.2854, 0.8327 0.7677 0.3642, 0.8327 0.8928 0.3642, 0.6673 0.7677 0.3642, 0.6673 0.8928 0.3642, 0.6673 0.9123 0.2685, 0.8327 0.9123 0.2685, 0.6673 0.9111 0.273, 0.8327 0.9111 0.273, 0.6673 0.9089 0.2771, 0.8327 0.9089 0.2771, 0.6673 0.9057 0.2806, 0.8327 0.9057 0.2806, 0.6673 0.9018 0.2832, 0.8327 0.9018 0.2832, 0.6673 0.8975 0.2849, 0.8327 0.8975 0.2849, 0.8327 0.9903 0.2794, 0.8327 0.9843 0.3021, 0.8327 0.9731 0.3227, 0.8327 0.9574 0.34, 0.8327 0.938 0.3532, 0.8327 0.9161 0.3614, 0.6673 0.9161 0.3614, 0.6673 0.938 0.3532, 0.6673 0.9574 0.34, 0.6673 0.9731 0.3227, 0.6673 0.9843 0.3021, 0.6673 0.9903 0.2794, 0.6673 0.9381 0.0847, 0.8327 0.9381 0.0847, 0.8327 1.0161 0.0957, 0.6673 1.0161 0.0957, 0.6673 0.9441 0.0621, 0.8327 0.9441 0.0621, 0.6673 0.9553 0.0415, 0.8327 0.9553 0.0415, 0.6673 0.971 0.0241, 0.8327 0.971 0.0241, 0.6673 0.9904 0.011, 0.8327 0.9904 0.011, 0.6673 1.0123 0.0028, 0.8327 1.0123 0.0028, 0.6673 1.0356 -0.0, 0.8327 1.0356 -0.0, 0.8327 1.0173 0.0912, 0.8327 1.0195 0.087, 0.8327 1.0227 0.0836, 0.8327 1.0265 0.0809, 0.8327 1.0309 0.0793, 0.8327 1.0356 0.0787, 0.6673 1.0356 0.0787, 0.6673 1.0309 0.0793, 0.6673 1.0265 0.0809, 0.6673 1.0227 0.0836, 0.6673 1.0195 0.087, 0.6673 1.0173 0.0912, 0.6673 1.0173 0.0912
            ]
        }
        coordIndex [
            0,1,2,-1,2,1,3,-1,4,5,6,-1,6,5,7,-1,6,7,8,-1,8,7,9,-1,8,9,10,-1,10,9,11,-1,11,5,10,-1,10,5,4,-1,4,6,12,-1,12,6,13,-1,12,13,14,-1,14,13,15,-1,14,15,16,-1,16,15,17,-1,16,17,18,-1,18,17,19,-1,18,19,20,-1,20,19,21,-1,20,21,22,-1,22,21,23,-1,6,8,13,-1,13,8,24,-1,13,24,15,-1,15,24,25,-1,15,25,17,-1,17,25,26,-1,17,26,19,-1,19,26,27,-1,19,27,21,-1,21,27,28,-1,21,28,23,-1,23,28,29,-1,30,29,28,-1,30,28,31,-1,31,28,27,-1,31,27,32,-1,32,27,26,-1,32,26,33,-1,33,26,25,-1,33,25,34,-1,34,25,24,-1,34,24,35,-1,35,24,8,-1,35,8,10,-1,22,30,20,-1,20,30,31,-1,20,31,18,-1,18,31,32,-1,18,32,16,-1,16,32,33,-1,16,33,14,-1,14,33,34,-1,14,34,12,-1,12,34,35,-1,12,35,4,-1,4,35,10,-1,36,22,37,-1,37,22,23,-1,37,23,38,-1,38,23,29,-1,38,29,39,-1,39,29,30,-1,30,22,39,-1,39,22,36,-1,40,41,42,-1,40,42,43,-1,43,42,44,-1,43,44,45,-1,45,44,46,-1,45,46,47,-1,47,46,48,-1,47,48,49,-1,49,48,50,-1,49,50,51,-1,51,50,36,-1,51,36,37,-1,52,40,53,-1,53,40,43,-1,53,43,54,-1,54,43,45,-1,54,45,55,-1,55,45,47,-1,55,47,56,-1,56,47,49,-1,56,49,57,-1,57,49,51,-1,57,51,38,-1,38,51,37,-1,38,39,57,-1,57,39,58,-1,57,58,56,-1,56,58,59,-1,56,59,55,-1,55,59,60,-1,55,60,54,-1,54,60,61,-1,54,61,53,-1,53,61,62,-1,53,62,52,-1,52,62,63,-1,39,36,58,-1,58,36,50,-1,58,50,59,-1,59,50,48,-1,59,48,60,-1,60,48,46,-1,60,46,61,-1,61,46,44,-1,61,44,62,-1,62,44,42,-1,62,42,63,-1,63,42,41,-1,3,41,2,-1,2,41,40,-1,2,40,0,-1,0,40,52,-1,0,52,1,-1,1,52,63,-1,63,41,1,-1,1,41,3,-1,64,65,66,-1,66,65,67,-1,68,69,70,-1,70,69,71,-1,70,71,72,-1,72,71,73,-1,72,73,74,-1,74,73,75,-1,75,69,74,-1,74,69,68,-1,68,70,76,-1,76,70,77,-1,76,77,78,-1,78,77,79,-1,78,79,80,-1,80,79,81,-1,80,81,82,-1,82,81,83,-1,82,83,84,-1,84,83,85,-1,84,85,86,-1,86,85,87,-1,70,72,77,-1,77,72,88,-1,77,88,79,-1,79,88,89,-1,79,89,81,-1,81,89,90,-1,81,90,83,-1,83,90,91,-1,83,91,85,-1,85,91,92,-1,85,92,87,-1,87,92,93,-1,94,93,92,-1,94,92,95,-1,95,92,91,-1,95,91,96,-1,96,91,90,-1,96,90,97,-1,97,90,89,-1,97,89,98,-1,98,89,88,-1,98,88,99,-1,99,88,72,-1,99,72,74,-1,86,94,84,-1,84,94,95,-1,84,95,82,-1,82,95,96,-1,82,96,80,-1,80,96,97,-1,80,97,78,-1,78,97,98,-1,78,98,76,-1,76,98,99,-1,76,99,68,-1,68,99,74,-1,100,86,101,-1,101,86,87,-1,101,87,102,-1,102,87,93,-1,102,93,103,-1,103,93,94,-1,94,86,103,-1,103,86,100,-1,104,105,106,-1,104,106,107,-1,107,106,108,-1,107,108,109,-1,109,108,110,-1,109,110,111,-1,111,110,112,-1,111,112,113,-1,113,112,114,-1,113,114,115,-1,115,114,100,-1,115,100,101,-1,116,104,117,-1,117,104,107,-1,117,107,118,-1,118,107,109,-1,118,109,119,-1,119,109,111,-1,119,111,120,-1,120,111,113,-1,120,113,121,-1,121,113,115,-1,121,115,102,-1,102,115,101,-1,102,103,121,-1,121,103,122,-1,121,122,120,-1,120,122,123,-1,120,123,119,-1,119,123,124,-1,119,124,118,-1,118,124,125,-1,118,125,117,-1,117,125,126,-1,117,126,116,-1,116,126,127,-1,103,100,122,-1,122,100,114,-1,122,114,123,-1,123,114,112,-1,123,112,124,-1,124,112,110,-1,124,110,125,-1,125,110,108,-1,125,108,126,-1,126,108,106,-1,126,106,127,-1,127,106,105,-1,67,105,66,-1,66,105,104,-1,66,104,64,-1,64,104,116,-1,64,116,65,-1,65,116,127,-1,127,105,65,-1,65,105,67,-1,128,129,130,-1,130,129,131,-1,132,133,134,-1,134,133,135,-1,134,135,136,-1,136,135,137,-1,136,137,138,-1,138,137,139,-1,139,133,138,-1,138,133,132,-1,132,134,140,-1,140,134,141,-1,140,141,142,-1,142,141,143,-1,142,143,144,-1,144,143,145,-1,144,145,146,-1,146,145,147,-1,146,147,148,-1,148,147,149,-1,148,149,150,-1,150,149,151,-1,134,136,141,-1,141,136,152,-1,141,152,143,-1,143,152,153,-1,143,153,145,-1,145,153,154,-1,145,154,147,-1,147,154,155,-1,147,155,149,-1,149,155,156,-1,149,156,151,-1,151,156,157,-1,158,157,156,-1,158,156,159,-1,159,156,155,-1,159,155,160,-1,160,155,154,-1,160,154,161,-1,161,154,153,-1,161,153,162,-1,162,153,152,-1,162,152,163,-1,163,152,136,-1,163,136,138,-1,150,158,148,-1,148,158,159,-1,148,159,146,-1,146,159,160,-1,146,160,144,-1,144,160,161,-1,144,161,142,-1,142,161,162,-1,142,162,140,-1,140,162,163,-1,140,163,132,-1,132,163,138,-1,164,150,165,-1,165,150,151,-1,165,151,166,-1,166,151,157,-1,166,157,167,-1,167,157,158,-1,158,150,167,-1,167,150,164,-1,168,169,170,-1,168,170,171,-1,171,170,172,-1,171,172,173,-1,173,172,174,-1,173,174,175,-1,175,174,176,-1,175,176,177,-1,177,176,178,-1,177,178,179,-1,179,178,164,-1,179,164,165,-1,180,168,181,-1,181,168,171,-1,181,171,182,-1,182,171,173,-1,182,173,183,-1,183,173,175,-1,183,175,184,-1,184,175,177,-1,184,177,185,-1,185,177,179,-1,185,179,166,-1,166,179,165,-1,166,167,185,-1,185,167,186,-1,185,186,184,-1,184,186,187,-1,184,187,183,-1,183,187,188,-1,183,188,182,-1,182,188,189,-1,182,189,181,-1,181,189,190,-1,181,190,180,-1,180,190,191,-1,167,164,186,-1,186,164,178,-1,186,178,187,-1,187,178,176,-1,187,176,188,-1,188,176,174,-1,188,174,189,-1,189,174,172,-1,189,172,190,-1,190,172,170,-1,190,170,191,-1,191,170,169,-1,131,169,130,-1,130,169,168,-1,130,168,128,-1,128,168,180,-1,128,180,129,-1,129,180,191,-1,191,169,129,-1,129,169,131,-1,192,193,194,-1,194,193,195,-1,196,197,198,-1,198,197,199,-1,198,199,200,-1,200,199,201,-1,200,201,202,-1,202,201,203,-1,203,197,202,-1,202,197,196,-1,196,198,204,-1,204,198,205,-1,204,205,206,-1,206,205,207,-1,206,207,208,-1,208,207,209,-1,208,209,210,-1,210,209,211,-1,210,211,212,-1,212,211,213,-1,212,213,214,-1,214,213,215,-1,198,200,205,-1,205,200,216,-1,205,216,207,-1,207,216,217,-1,207,217,209,-1,209,217,218,-1,209,218,211,-1,211,218,219,-1,211,219,213,-1,213,219,220,-1,213,220,215,-1,215,220,221,-1,222,221,220,-1,222,220,223,-1,223,220,219,-1,223,219,224,-1,224,219,218,-1,224,218,225,-1,225,218,217,-1,225,217,226,-1,226,217,216,-1,226,216,227,-1,227,216,200,-1,227,200,202,-1,214,222,212,-1,212,222,223,-1,212,223,210,-1,210,223,224,-1,210,224,208,-1,208,224,225,-1,208,225,206,-1,206,225,226,-1,206,226,204,-1,204,226,227,-1,204,227,196,-1,196,227,202,-1,228,214,229,-1,229,214,215,-1,229,215,230,-1,230,215,221,-1,230,221,231,-1,231,221,222,-1,222,214,231,-1,231,214,228,-1,232,233,234,-1,232,234,235,-1,235,234,236,-1,235,236,237,-1,237,236,238,-1,237,238,239,-1,239,238,240,-1,239,240,241,-1,241,240,242,-1,241,242,243,-1,243,242,228,-1,243,228,229,-1,244,232,245,-1,245,232,235,-1,245,235,246,-1,246,235,237,-1,246,237,247,-1,247,237,239,-1,247,239,248,-1,248,239,241,-1,248,241,249,-1,249,241,243,-1,249,243,230,-1,230,243,229,-1,230,231,249,-1,249,231,250,-1,249,250,248,-1,248,250,251,-1,248,251,247,-1,247,251,252,-1,247,252,246,-1,246,252,253,-1,246,253,245,-1,245,253,254,-1,245,254,244,-1,244,254,255,-1,231,228,250,-1,250,228,242,-1,250,242,251,-1,251,242,240,-1,251,240,252,-1,252,240,238,-1,252,238,253,-1,253,238,236,-1,253,236,254,-1,254,236,234,-1,254,234,255,-1,255,234,233,-1,195,233,194,-1,194,233,232,-1,194,232,192,-1,192,232,244,-1,192,244,193,-1,193,244,255,-1,255,233,193,-1,193,233,195,-1,256,257,258,-1,258,257,259,-1,260,261,262,-1,262,261,263,-1,262,263,264,-1,264,263,265,-1,264,265,266,-1,266,265,267,-1,267,261,266,-1,266,261,260,-1,268,269,270,-1,268,270,271,-1,271,270,272,-1,271,272,273,-1,273,272,274,-1,273,274,275,-1,275,274,276,-1,275,276,277,-1,277,276,278,-1,277,278,279,-1,279,278,260,-1,279,260,262,-1,280,268,281,-1,281,268,271,-1,281,271,282,-1,282,271,273,-1,282,273,283,-1,283,273,275,-1,283,275,284,-1,284,275,277,-1,284,277,285,-1,285,277,279,-1,285,279,264,-1,264,279,262,-1,264,266,285,-1,285,266,286,-1,285,286,284,-1,284,286,287,-1,284,287,283,-1,283,287,288,-1,283,288,282,-1,282,288,289,-1,282,289,281,-1,281,289,290,-1,281,290,280,-1,280,290,291,-1,266,260,286,-1,286,260,278,-1,286,278,287,-1,287,278,276,-1,287,276,288,-1,288,276,274,-1,288,274,289,-1,289,274,272,-1,289,272,290,-1,290,272,270,-1,290,270,291,-1,291,270,269,-1,292,269,293,-1,293,269,268,-1,293,268,294,-1,294,268,280,-1,294,280,295,-1,295,280,291,-1,291,269,295,-1,295,269,292,-1,292,293,296,-1,296,293,297,-1,296,297,298,-1,298,297,299,-1,298,299,300,-1,300,299,301,-1,300,301,302,-1,302,301,303,-1,302,303,304,-1,304,303,305,-1,304,305,306,-1,306,305,307,-1,293,294,297,-1,297,294,308,-1,297,308,299,-1,299,308,309,-1,299,309,301,-1,301,309,310,-1,301,310,303,-1,303,310,311,-1,303,311,305,-1,305,311,312,-1,305,312,307,-1,307,312,313,-1,314,313,312,-1,314,312,315,-1,315,312,311,-1,315,311,316,-1,316,311,310,-1,316,310,317,-1,317,310,309,-1,317,309,318,-1,318,309,308,-1,318,308,319,-1,319,308,294,-1,319,294,295,-1,306,314,304,-1,304,314,315,-1,304,315,302,-1,302,315,316,-1,302,316,300,-1,300,316,317,-1,300,317,298,-1,298,317,318,-1,298,318,296,-1,296,318,319,-1,296,319,292,-1,292,319,295,-1,256,306,257,-1,257,306,307,-1,257,307,259,-1,259,307,313,-1,259,313,258,-1,258,313,314,-1,314,306,258,-1,258,306,256,-1,320,321,322,-1,322,321,323,-1,324,325,326,-1,326,325,327,-1,326,327,328,-1,328,327,329,-1,328,329,330,-1,330,329,331,-1,324,330,325,-1,325,330,331,-1,332,333,334,-1,334,333,335,-1,334,335,336,-1,336,335,337,-1,336,337,338,-1,338,337,339,-1,338,339,340,-1,340,339,341,-1,340,341,342,-1,342,341,343,-1,342,343,325,-1,325,343,327,-1,333,344,335,-1,335,344,345,-1,335,345,337,-1,337,345,346,-1,337,346,339,-1,339,346,347,-1,339,347,341,-1,341,347,348,-1,341,348,343,-1,343,348,349,-1,343,349,327,-1,327,349,329,-1,331,329,349,-1,331,349,350,-1,350,349,348,-1,350,348,351,-1,351,348,347,-1,351,347,352,-1,352,347,346,-1,352,346,353,-1,353,346,345,-1,353,345,354,-1,354,345,344,-1,354,344,355,-1,325,331,342,-1,342,331,350,-1,342,350,340,-1,340,350,351,-1,340,351,338,-1,338,351,352,-1,338,352,336,-1,336,352,353,-1,336,353,334,-1,334,353,354,-1,334,354,332,-1,332,354,355,-1,332,356,333,-1,333,356,357,-1,333,357,344,-1,344,357,358,-1,344,358,355,-1,355,358,359,-1,332,355,356,-1,356,355,359,-1,357,356,360,-1,357,360,361,-1,361,360,362,-1,361,362,363,-1,363,362,364,-1,363,364,365,-1,365,364,366,-1,365,366,367,-1,367,366,368,-1,367,368,369,-1,369,368,370,-1,369,370,371,-1,358,357,372,-1,372,357,361,-1,372,361,373,-1,373,361,363,-1,373,363,374,-1,374,363,365,-1,374,365,375,-1,375,365,367,-1,375,367,376,-1,376,367,369,-1,376,369,377,-1,377,369,371,-1,377,378,376,-1,376,378,379,-1,376,379,375,-1,375,379,380,-1,375,380,374,-1,374,380,381,-1,374,381,373,-1,373,381,382,-1,373,382,372,-1,372,382,383,-1,372,383,358,-1,358,383,359,-1,378,370,379,-1,379,370,368,-1,379,368,380,-1,380,368,366,-1,380,366,381,-1,381,366,364,-1,381,364,382,-1,382,364,362,-1,382,362,383,-1,383,362,360,-1,383,360,359,-1,359,360,356,-1,370,322,371,-1,371,322,323,-1,371,323,377,-1,377,323,321,-1,377,321,378,-1,378,321,320,-1,370,378,322,-1,322,378,320,-1,384,385,386,-1,386,385,387,-1,388,389,390,-1,390,389,391,-1,390,391,392,-1,392,391,393,-1,392,393,394,-1,394,393,395,-1,388,394,389,-1,389,394,395,-1,396,397,398,-1,398,397,399,-1,398,399,400,-1,400,399,401,-1,400,401,402,-1,402,401,403,-1,402,403,404,-1,404,403,405,-1,404,405,406,-1,406,405,407,-1,406,407,389,-1,389,407,391,-1,397,408,399,-1,399,408,409,-1,399,409,401,-1,401,409,410,-1,401,410,403,-1,403,410,411,-1,403,411,405,-1,405,411,412,-1,405,412,407,-1,407,412,413,-1,407,413,391,-1,391,413,393,-1,395,393,413,-1,395,413,414,-1,414,413,412,-1,414,412,415,-1,415,412,411,-1,415,411,416,-1,416,411,410,-1,416,410,417,-1,417,410,409,-1,417,409,418,-1,418,409,408,-1,418,408,419,-1,389,395,406,-1,406,395,414,-1,406,414,404,-1,404,414,415,-1,404,415,402,-1,402,415,416,-1,402,416,400,-1,400,416,417,-1,400,417,398,-1,398,417,418,-1,398,418,396,-1,396,418,419,-1,396,420,397,-1,397,420,421,-1,397,421,408,-1,408,421,422,-1,408,422,419,-1,419,422,423,-1,396,419,420,-1,420,419,423,-1,421,420,424,-1,421,424,425,-1,425,424,426,-1,425,426,427,-1,427,426,428,-1,427,428,429,-1,429,428,430,-1,429,430,431,-1,431,430,432,-1,431,432,433,-1,433,432,434,-1,433,434,435,-1,422,421,436,-1,436,421,425,-1,436,425,437,-1,437,425,427,-1,437,427,438,-1,438,427,429,-1,438,429,439,-1,439,429,431,-1,439,431,440,-1,440,431,433,-1,440,433,441,-1,441,433,435,-1,441,442,440,-1,440,442,443,-1,440,443,439,-1,439,443,444,-1,439,444,438,-1,438,444,445,-1,438,445,437,-1,437,445,446,-1,437,446,436,-1,436,446,447,-1,436,447,422,-1,422,447,423,-1,442,434,443,-1,443,434,432,-1,443,432,444,-1,444,432,430,-1,444,430,445,-1,445,430,428,-1,445,428,446,-1,446,428,426,-1,446,426,447,-1,447,426,424,-1,447,424,423,-1,423,424,420,-1,434,386,435,-1,435,386,387,-1,435,387,441,-1,441,387,385,-1,441,385,442,-1,442,385,384,-1,434,442,386,-1,386,442,384,-1,448,449,450,-1,450,449,451,-1,452,453,454,-1,454,453,455,-1,454,455,456,-1,456,455,457,-1,456,457,458,-1,458,457,459,-1,452,458,453,-1,453,458,459,-1,460,461,462,-1,462,461,463,-1,462,463,464,-1,464,463,465,-1,464,465,466,-1,466,465,467,-1,466,467,468,-1,468,467,469,-1,468,469,470,-1,470,469,471,-1,470,471,453,-1,453,471,455,-1,461,472,463,-1,463,472,473,-1,463,473,465,-1,465,473,474,-1,465,474,467,-1,467,474,475,-1,467,475,469,-1,469,475,476,-1,469,476,471,-1,471,476,477,-1,471,477,455,-1,455,477,457,-1,459,457,477,-1,459,477,478,-1,478,477,476,-1,478,476,479,-1,479,476,475,-1,479,475,480,-1,480,475,474,-1,480,474,481,-1,481,474,473,-1,481,473,482,-1,482,473,472,-1,482,472,483,-1,453,459,470,-1,470,459,478,-1,470,478,468,-1,468,478,479,-1,468,479,466,-1,466,479,480,-1,466,480,464,-1,464,480,481,-1,464,481,462,-1,462,481,482,-1,462,482,460,-1,460,482,483,-1,460,484,461,-1,461,484,485,-1,461,485,472,-1,472,485,486,-1,472,486,483,-1,483,486,487,-1,460,483,484,-1,484,483,487,-1,485,484,488,-1,485,488,489,-1,489,488,490,-1,489,490,491,-1,491,490,492,-1,491,492,493,-1,493,492,494,-1,493,494,495,-1,495,494,496,-1,495,496,497,-1,497,496,498,-1,497,498,499,-1,486,485,500,-1,500,485,489,-1,500,489,501,-1,501,489,491,-1,501,491,502,-1,502,491,493,-1,502,493,503,-1,503,493,495,-1,503,495,504,-1,504,495,497,-1,504,497,505,-1,505,497,499,-1,505,506,504,-1,504,506,507,-1,504,507,503,-1,503,507,508,-1,503,508,502,-1,502,508,509,-1,502,509,501,-1,501,509,510,-1,501,510,500,-1,500,510,511,-1,500,511,486,-1,486,511,487,-1,506,498,507,-1,507,498,496,-1,507,496,508,-1,508,496,494,-1,508,494,509,-1,509,494,492,-1,509,492,510,-1,510,492,490,-1,510,490,511,-1,511,490,488,-1,511,488,487,-1,487,488,484,-1,498,450,499,-1,499,450,451,-1,499,451,505,-1,505,451,449,-1,505,449,506,-1,506,449,448,-1,498,506,450,-1,450,506,448,-1,
        ]
    }
}
Shape{
    appearance Appearance {
        material  Material 	{
            diffuseColor 1.0 1.0 1.0
            specularColor 0.8784313725490196 0.8784313725490196 0.8784313725490196
            ambientIntensity 0.2
            transparency 0
            shininess 0.5
        }
    }
    geometry IndexedFaceSet {
        ccw TRUE
        solid FALSE
        coord DEF co Coordinate {
            point [
                -0.1957 0.0461 0.0531, -0.1917 0.0331 0.0531, -0.2352 0.0461 0.0531, -0.2405 0.0331 0.0531, -0.2133 0.0954 0.0531, -0.2078 0.1181 0.0531, -0.1632 -0.0 0.0531, -0.1804 -0.0 0.0531, -0.2145 0.0995 0.0531, -0.2152 0.1037 0.0531, -0.2236 0.1181 0.0531, -0.2156 0.1037 0.0531, -0.2164 0.0995 0.0531, -0.2174 0.0954 0.0531, -0.2697 -0.0 0.0531, -0.2525 -0.0 0.0531, -0.2405 0.0331 0.0492, -0.2525 -0.0 0.0492, -0.1917 0.0331 0.0492, -0.1804 -0.0 0.0492, -0.1632 -0.0 0.0492, -0.2078 0.1181 0.0492, -0.2236 0.1181 0.0492, -0.2697 -0.0 0.0492, -0.2174 0.0954 0.0492, -0.2164 0.0995 0.0492, -0.2156 0.1037 0.0492, -0.2152 0.1037 0.0492, -0.2145 0.0995 0.0492, -0.2133 0.0954 0.0492, -0.1957 0.0461 0.0492, -0.2352 0.0461 0.0492, -0.0928 0.1181 0.0531, -0.0928 0.1181 0.0492, -0.0594 0.1181 0.0531, -0.0594 0.1181 0.0492, -0.1098 0.1163 0.0531, -0.1098 0.1163 0.0492, -0.1237 0.1114 0.0531, -0.1237 0.1114 0.0492, -0.1354 0.1038 0.0531, -0.1354 0.1038 0.0492, -0.14 0.0996 0.0531, -0.14 0.0996 0.0492, -0.1471 0.0902 0.0531, -0.1471 0.0902 0.0492, -0.1521 0.0786 0.0531, -0.1521 0.0786 0.0492, -0.1543 0.0663 0.0531, -0.1543 0.0663 0.0492, -0.1545 0.0605 0.0531, -0.1545 0.0605 0.0492, -0.1529 0.0447 0.0531, -0.1529 0.0447 0.0492, -0.1486 0.0324 0.0531, -0.1486 0.0324 0.0492, -0.1418 0.0218 0.0531, -0.1418 0.0218 0.0492, -0.1321 0.0125 0.0531, -0.1321 0.0125 0.0492, -0.1198 0.0053 0.0531, -0.1198 0.0053 0.0492, -0.1062 0.0013 0.0531, -0.1062 0.0013 0.0492, -0.0916 -0.0 0.0531, -0.0916 -0.0 0.0492, -0.0594 -0.0 0.0531, -0.0594 -0.0 0.0492, -0.1387 0.0602 0.0531, -0.1377 0.072 0.0531, -0.1349 0.0813 0.0531, -0.1308 0.0885 0.0531, -0.1251 0.0946 0.0531, -0.1165 0.1002 0.0531, -0.1068 0.1036 0.0531, -0.0927 0.1051 0.0531, -0.0753 0.1051 0.0531, -0.0753 0.013 0.0531, -0.0921 0.013 0.0531, -0.1045 0.0141 0.0531, -0.1145 0.0172 0.0531, -0.1224 0.0219 0.0531, -0.129 0.0284 0.0531, -0.1341 0.0366 0.0531, -0.1372 0.0459 0.0531, -0.0921 0.013 0.0492, -0.0753 0.013 0.0492, -0.1045 0.0141 0.0492, -0.1145 0.0172 0.0492, -0.1224 0.0219 0.0492, -0.129 0.0284 0.0492, -0.1341 0.0366 0.0492, -0.1372 0.0459 0.0492, -0.1387 0.0602 0.0492, -0.1377 0.072 0.0492, -0.1349 0.0813 0.0492, -0.1308 0.0885 0.0492, -0.1251 0.0946 0.0492, -0.1165 0.1002 0.0492, -0.1068 0.1036 0.0492, -0.0927 0.1051 0.0492, -0.0753 0.1051 0.0492, 0.027 0.1181 0.0531, 0.027 0.1181 0.0492, 0.027 0.0 0.0531, 0.027 0.0 0.0492, -0.0335 0.1181 0.0531, -0.0335 0.1181 0.0492, -0.0335 0.1051 0.0531, -0.0335 0.1051 0.0492, 0.0111 0.1051 0.0531, 0.0111 0.1051 0.0492, 0.0111 0.0663 0.0531, 0.0111 0.0663 0.0492, -0.0306 0.0663 0.0531, -0.0306 0.0663 0.0492, -0.0306 0.0533 0.0531, -0.0306 0.0533 0.0492, 0.0111 0.0533 0.0531, 0.0111 0.0533 0.0492, 0.0111 0.013 0.0531, 0.0111 0.013 0.0492, -0.0364 0.013 0.0531, -0.0364 0.013 0.0492, -0.0364 -0.0 0.0531, -0.0364 -0.0 0.0492, 0.0895 -0.0007 0.0492, 0.0825 -0.0014 0.0492, 0.0825 -0.0014 0.0531, 0.0971 0.0001 0.0492, 0.0971 0.0001 0.0531, 0.1086 0.004 0.0531, 0.1086 0.004 0.0492, 0.1182 0.0102 0.0531, 0.1182 0.0102 0.0492, 0.127 0.0196 0.0531, 0.127 0.0196 0.0492, 0.1333 0.0309 0.0531, 0.1333 0.0309 0.0492, 0.1368 0.0434 0.0531, 0.1368 0.0434 0.0492, 0.1379 0.0568 0.0531, 0.1379 0.0568 0.0492, 0.1362 0.0736 0.0531, 0.1362 0.0736 0.0492, 0.1317 0.087 0.0531, 0.1317 0.087 0.0492, 0.1247 0.0981 0.0531, 0.1247 0.0981 0.0492, 0.1145 0.108 0.0531, 0.1145 0.108 0.0492, 0.1034 0.1145 0.0531, 0.1034 0.1145 0.0492, 0.0905 0.1184 0.0531, 0.0905 0.1184 0.0492, 0.0778 0.1196 0.0531, 0.0778 0.1196 0.0492, 0.0637 0.1186 0.0531, 0.0637 0.1186 0.0492, 0.05 0.1149 0.0531, 0.05 0.1149 0.0492, 0.05 0.099 0.0531, 0.05 0.099 0.0492, 0.0633 0.1047 0.0531, 0.0633 0.1047 0.0492, 0.0777 0.1066 0.0531, 0.0777 0.1066 0.0492, 0.0893 0.1053 0.0531, 0.0893 0.1053 0.0492, 0.0981 0.1021 0.0531, 0.0981 0.1021 0.0492, 0.1065 0.0965 0.0531, 0.1065 0.0965 0.0492, 0.1136 0.0886 0.0531, 0.1136 0.0886 0.0492, 0.1184 0.0794 0.0531, 0.1184 0.0794 0.0492, 0.1215 0.0667 0.0531, 0.1215 0.0667 0.0492, 0.122 0.0578 0.0531, 0.122 0.0578 0.0492, 0.1208 0.045 0.0531, 0.1208 0.045 0.0492, 0.1176 0.0349 0.0531, 0.1176 0.0349 0.0492, 0.1127 0.0267 0.0531, 0.1127 0.0267 0.0492, 0.1072 0.0209 0.0531, 0.1072 0.0209 0.0492, 0.1 0.0159 0.0531, 0.1 0.0159 0.0492, 0.0913 0.0127 0.0531, 0.0913 0.0127 0.0492, 0.0803 0.0115 0.0531, 0.0803 0.0115 0.0492, 0.0647 0.0133 0.0531, 0.0647 0.0133 0.0492, 0.0521 0.0179 0.0531, 0.0521 0.0179 0.0492, 0.05 0.0191 0.0531, 0.05 0.0191 0.0492, 0.05 0.0061 0.0531, 0.05 0.0061 0.0492, 0.0626 0.001 0.0492, 0.0626 0.001 0.0531, 0.0745 -0.0007 0.0492, 0.0793 -0.0014 0.0531, 0.0793 -0.0014 0.0492, 0.2085 0.1181 0.0531, 0.2085 0.1181 0.0492, 0.2085 0.0 0.0531, 0.2085 0.0 0.0492, 0.1926 0.1181 0.0531, 0.1926 0.1181 0.0492, 0.1926 0.013 0.0531, 0.1926 0.013 0.0492, 0.148 0.013 0.0531, 0.148 0.013 0.0492, 0.148 0.0 0.0531, 0.148 0.0 0.0492, 0.148 0.0 0.0492
            ]
        }
        coordIndex [
            0,1,2,-1,2,1,3,-1,4,5,0,-1,0,5,6,-1,0,6,1,-1,1,6,7,-1,4,8,5,-1,5,8,9,-1,5,9,10,-1,10,9,11,-1,10,11,12,-1,12,13,10,-1,10,13,2,-1,10,2,14,-1,14,2,3,-1,14,3,15,-1,3,16,15,-1,15,16,17,-1,1,18,3,-1,3,18,16,-1,7,19,1,-1,1,19,18,-1,6,20,7,-1,7,20,19,-1,5,21,6,-1,6,21,20,-1,10,22,5,-1,5,22,21,-1,14,23,10,-1,10,23,22,-1,14,15,23,-1,23,15,17,-1,24,13,12,-1,24,12,25,-1,25,12,11,-1,25,11,26,-1,9,27,11,-1,11,27,26,-1,27,9,8,-1,27,8,28,-1,28,8,4,-1,28,4,29,-1,0,30,4,-1,4,30,29,-1,2,31,0,-1,0,31,30,-1,24,31,13,-1,13,31,2,-1,32,33,34,-1,34,33,35,-1,33,32,36,-1,33,36,37,-1,37,36,38,-1,37,38,39,-1,39,38,40,-1,39,40,41,-1,41,40,42,-1,41,42,43,-1,43,42,44,-1,43,44,45,-1,45,44,46,-1,45,46,47,-1,47,46,48,-1,47,48,49,-1,49,48,50,-1,49,50,51,-1,51,50,52,-1,51,52,53,-1,53,52,54,-1,53,54,55,-1,55,54,56,-1,55,56,57,-1,57,56,58,-1,57,58,59,-1,59,58,60,-1,59,60,61,-1,61,60,62,-1,61,62,63,-1,63,62,64,-1,63,64,65,-1,66,67,64,-1,64,67,65,-1,66,34,67,-1,67,34,35,-1,52,50,68,-1,68,50,48,-1,68,48,69,-1,69,48,46,-1,69,46,70,-1,70,46,44,-1,70,44,71,-1,71,44,42,-1,71,42,72,-1,72,42,40,-1,72,40,73,-1,73,40,38,-1,73,38,74,-1,74,38,36,-1,74,36,75,-1,75,36,32,-1,75,32,76,-1,76,32,34,-1,76,34,77,-1,77,34,66,-1,77,66,78,-1,78,66,64,-1,78,64,79,-1,79,64,62,-1,79,62,80,-1,80,62,60,-1,80,60,81,-1,81,60,58,-1,81,58,82,-1,82,58,56,-1,82,56,83,-1,83,56,54,-1,83,54,84,-1,84,54,52,-1,84,52,68,-1,78,85,77,-1,77,85,86,-1,85,78,79,-1,85,79,87,-1,87,79,80,-1,87,80,88,-1,88,80,81,-1,88,81,89,-1,89,81,82,-1,89,82,90,-1,90,82,83,-1,90,83,91,-1,91,83,84,-1,91,84,92,-1,92,84,68,-1,92,68,93,-1,93,68,69,-1,93,69,94,-1,94,69,70,-1,94,70,95,-1,95,70,71,-1,95,71,96,-1,96,71,72,-1,96,72,97,-1,97,72,73,-1,97,73,98,-1,98,73,74,-1,98,74,99,-1,99,74,75,-1,99,75,100,-1,76,101,75,-1,75,101,100,-1,86,101,77,-1,77,101,76,-1,102,103,104,-1,104,103,105,-1,106,107,102,-1,102,107,103,-1,108,109,106,-1,106,109,107,-1,110,111,108,-1,108,111,109,-1,112,113,110,-1,110,113,111,-1,114,115,112,-1,112,115,113,-1,116,117,114,-1,114,117,115,-1,118,119,116,-1,116,119,117,-1,120,121,118,-1,118,121,119,-1,122,123,120,-1,120,123,121,-1,124,125,122,-1,122,125,123,-1,124,104,125,-1,125,104,105,-1,104,124,122,-1,122,120,104,-1,104,120,118,-1,104,118,102,-1,108,106,110,-1,110,106,102,-1,110,102,112,-1,112,102,118,-1,112,118,114,-1,114,118,116,-1,126,127,128,-1,126,128,129,-1,128,130,129,-1,129,130,131,-1,129,131,132,-1,132,131,133,-1,132,133,134,-1,134,133,135,-1,134,135,136,-1,136,135,137,-1,136,137,138,-1,138,137,139,-1,138,139,140,-1,140,139,141,-1,140,141,142,-1,142,141,143,-1,142,143,144,-1,144,143,145,-1,144,145,146,-1,146,145,147,-1,146,147,148,-1,148,147,149,-1,148,149,150,-1,150,149,151,-1,150,151,152,-1,152,151,153,-1,152,153,154,-1,154,153,155,-1,154,155,156,-1,156,155,157,-1,156,157,158,-1,158,157,159,-1,158,159,160,-1,161,162,159,-1,159,162,160,-1,162,161,163,-1,162,163,164,-1,164,163,165,-1,164,165,166,-1,166,165,167,-1,166,167,168,-1,168,167,169,-1,168,169,170,-1,170,169,171,-1,170,171,172,-1,172,171,173,-1,172,173,174,-1,174,173,175,-1,174,175,176,-1,176,175,177,-1,176,177,178,-1,178,177,179,-1,178,179,180,-1,180,179,181,-1,180,181,182,-1,182,181,183,-1,182,183,184,-1,184,183,185,-1,184,185,186,-1,186,185,187,-1,186,187,188,-1,188,187,189,-1,188,189,190,-1,190,189,191,-1,190,191,192,-1,192,191,193,-1,192,193,194,-1,194,193,195,-1,194,195,196,-1,196,195,197,-1,196,197,198,-1,198,197,199,-1,198,199,200,-1,201,202,199,-1,199,202,200,-1,203,202,204,-1,204,202,201,-1,203,204,205,-1,205,204,206,-1,205,206,207,-1,207,206,128,-1,207,128,127,-1,191,128,193,-1,193,128,206,-1,193,206,195,-1,195,206,204,-1,195,204,197,-1,197,204,201,-1,197,201,199,-1,161,159,163,-1,163,159,157,-1,163,157,165,-1,165,157,155,-1,165,155,167,-1,167,155,153,-1,167,153,169,-1,169,153,151,-1,169,151,171,-1,171,151,149,-1,171,149,173,-1,173,149,147,-1,173,147,175,-1,175,147,145,-1,175,145,177,-1,177,145,143,-1,177,143,179,-1,179,143,141,-1,179,141,181,-1,181,141,139,-1,181,139,183,-1,183,139,137,-1,183,137,185,-1,185,137,135,-1,185,135,187,-1,187,135,133,-1,187,133,189,-1,189,133,131,-1,189,131,191,-1,191,131,130,-1,191,130,128,-1,208,209,210,-1,210,209,211,-1,212,213,208,-1,208,213,209,-1,214,215,212,-1,212,215,213,-1,216,217,214,-1,214,217,215,-1,218,219,216,-1,216,219,217,-1,218,210,219,-1,219,210,211,-1,212,208,214,-1,214,208,210,-1,214,210,216,-1,216,210,218,-1,
        ]
    }
}
Shape{
    appearance Appearance {
        material  Material 	{
            diffuseColor 0.10980392156862745 0.10980392156862745 0.10980392156862745
            specularColor 0.0784313725490196 0.0784313725490196 0.0784313725490196
            ambientIntensity 0.2
            transparency 0
            shininess 0.5
        }
    }
    geometry IndexedFaceSet {
        ccw TRUE
        solid FALSE
        coord DEF co Coordinate {
            point [
                -0.1957 0.0461 0.0492, -0.2352 0.0461 0.0492, -0.2133 0.0954 0.0492, -0.2174 0.0954 0.0492, -0.2145 0.0995 0.0492, -0.2164 0.0995 0.0492, -0.2152 0.1037 0.0492, -0.2156 0.1037 0.0492, -0.0927 0.1051 0.0492, -0.0753 0.1051 0.0492, -0.0753 0.013 0.0492, -0.1372 0.0459 0.0492, -0.1387 0.0602 0.0492, -0.1341 0.0366 0.0492, -0.1377 0.072 0.0492, -0.1349 0.0813 0.0492, -0.1068 0.1036 0.0492, -0.0921 0.013 0.0492, -0.1045 0.0141 0.0492, -0.1145 0.0172 0.0492, -0.1308 0.0885 0.0492, -0.1251 0.0946 0.0492, -0.1165 0.1002 0.0492, -0.1224 0.0219 0.0492, -0.129 0.0284 0.0492, -0.129 0.0284 0.0492
            ]
        }
        coordIndex [
            0,1,2,-1,2,1,3,-1,2,3,4,-1,4,3,5,-1,4,5,6,-1,6,5,7,-1,8,9,10,-1,11,12,8,-1,11,8,13,-1,12,14,8,-1,8,14,15,-1,8,15,16,-1,10,17,8,-1,8,17,18,-1,8,18,19,-1,20,21,15,-1,15,21,22,-1,15,22,16,-1,19,23,8,-1,8,23,24,-1,8,24,13,-1,
        ]
    }
}