<?xml version="1.0" standalone="no"?>
 <!DOCTYPE svg PUBLIC "-//W3C//DTD SVG 1.1//EN" 
 "http://www.w3.org/Graphics/SVG/1.1/DTD/svg11.dtd"> 
<svg
  xmlns:svg="http://www.w3.org/2000/svg"
  xmlns="http://www.w3.org/2000/svg"
  xmlns:xlink="http://www.w3.org/1999/xlink"
  xmlns:inkscape="http://www.inkscape.org/namespaces/inkscape"
  version="1.1"
  width="94.0054mm" height="48.0822mm" viewBox="0.0000 0.0000 94.0054 48.0822">
<title>SVG Image created as pcb-bottom.svg date 2026-05-18T04:12:52 </title>
  <desc>Image generated by PCBNEW </desc>
<g style="fill:#000000; fill-opacity:1.0000;stroke:#000000; stroke-opacity:1.0000;
stroke-linecap:round; stroke-linejoin:round;"
 transform="translate(0 0) scale(1 1)">
</g>
<g style="fill:none; 
stroke:#C872AB; stroke-width:0.1500; stroke-opacity:1; 
stroke-linecap:round; stroke-linejoin:round;">
<path d="M-112.5800 -104.8000
L-4.5800 -104.8000
L-4.5800 -72.8000
L-112.5800 -72.8000
L-112.5800 -104.8000
" />
<path d="M-76.5900 -98.9000
L-2.5800 -98.9000
L-2.5800 -70.8000
L-76.5900 -70.8000
L-76.5900 -98.9000
" />
<path d="M-74.5900 -96.9000
L-4.5800 -96.9000
L-4.5800 -72.8000
L-74.5900 -72.8000
L-74.5900 -96.9000
" />
<path d="M-26.5900 -96.9000
L-26.5900 -98.9000
" />
<text x="-51.5900" y="-97.2500"
textLength="1.4281" font-size="1.7333" lengthAdjust="spacingAndGlyphs"
text-anchor="start" opacity="0" stroke-opacity="0">1</text>
<g class="stroked-text"><desc>1</desc>
<path d="M-50.5008 -97.3064
L-51.2437 -97.3064
" />
<path d="M-50.8723 -97.3064
L-50.8723 -98.6064
" />
<path d="M-50.8723 -98.6064
L-50.9961 -98.4207
" />
<path d="M-50.9961 -98.4207
L-51.1199 -98.2969
" />
<path d="M-51.1199 -98.2969
L-51.2437 -98.2350
" />
</g><path d="M-26.5900 -72.8000
L-26.5900 -70.8000
" />
<text x="-51.5900" y="-71.1500"
textLength="1.4281" font-size="1.7333" lengthAdjust="spacingAndGlyphs"
text-anchor="start" opacity="0" stroke-opacity="0">1</text>
<g class="stroked-text"><desc>1</desc>
<path d="M-50.5008 -71.2064
L-51.2437 -71.2064
" />
<path d="M-50.8723 -71.2064
L-50.8723 -72.5064
" />
<path d="M-50.8723 -72.5064
L-50.9961 -72.3207
" />
<path d="M-50.9961 -72.3207
L-51.1199 -72.1969
" />
<path d="M-51.1199 -72.1969
L-51.2437 -72.1350
" />
</g><path d="M-76.5900 -48.9000
L-74.5900 -48.9000
" />
<text x="-75.5900" y="-73.2500"
textLength="1.3043" font-size="1.7333" lengthAdjust="spacingAndGlyphs"
text-anchor="middle" opacity="0" stroke-opacity="0">A</text>
<g class="stroked-text"><desc>A</desc>
<path d="M-75.8995 -73.6778
L-75.2805 -73.6778
" />
<path d="M-76.0233 -73.3064
L-75.5900 -74.6064
" />
<path d="M-75.5900 -74.6064
L-75.1567 -73.3064
" />
</g><path d="M-2.5800 -48.9000
L-4.5800 -48.9000
" />
<text x="-3.5800" y="-73.2500"
textLength="1.3043" font-size="1.7333" lengthAdjust="spacingAndGlyphs"
text-anchor="middle" opacity="0" stroke-opacity="0">A</text>
<g class="stroked-text"><desc>A</desc>
<path d="M-3.8895 -73.6778
L-3.2705 -73.6778
" />
<path d="M-4.0133 -73.3064
L-3.5800 -74.6064
" />
<path d="M-3.5800 -74.6064
L-3.1467 -73.3064
" />
</g><text x="-89.5800" y="-76.9500"
textLength="7.0071" font-size="2.0000" lengthAdjust="spacingAndGlyphs"
text-anchor="start" opacity="0" stroke-opacity="0">Date: </text>
<g class="stroked-text"><desc>Date: </desc>
<path d="M-89.1242 -77.0139
L-89.1242 -78.5139
" />
<path d="M-89.1242 -78.5139
L-88.7670 -78.5139
" />
<path d="M-88.7670 -78.5139
L-88.5527 -78.4424
" />
<path d="M-88.5527 -78.4424
L-88.4099 -78.2996
" />
<path d="M-88.4099 -78.2996
L-88.3385 -78.1567
" />
<path d="M-88.3385 -78.1567
L-88.2670 -77.8710
" />
<path d="M-88.2670 -77.8710
L-88.2670 -77.6567
" />
<path d="M-88.2670 -77.6567
L-88.3385 -77.3710
" />
<path d="M-88.3385 -77.3710
L-88.4099 -77.2282
" />
<path d="M-88.4099 -77.2282
L-88.5527 -77.0853
" />
<path d="M-88.5527 -77.0853
L-88.7670 -77.0139
" />
<path d="M-88.7670 -77.0139
L-89.1242 -77.0139
" />
<path d="M-86.9813 -77.0139
L-86.9813 -77.7996
" />
<path d="M-86.9813 -77.7996
L-87.0527 -77.9424
" />
<path d="M-87.0527 -77.9424
L-87.1956 -78.0139
" />
<path d="M-87.1956 -78.0139
L-87.4813 -78.0139
" />
<path d="M-87.4813 -78.0139
L-87.6242 -77.9424
" />
<path d="M-86.9813 -77.0853
L-87.1242 -77.0139
" />
<path d="M-87.1242 -77.0139
L-87.4813 -77.0139
" />
<path d="M-87.4813 -77.0139
L-87.6242 -77.0853
" />
<path d="M-87.6242 -77.0853
L-87.6956 -77.2282
" />
<path d="M-87.6956 -77.2282
L-87.6956 -77.3710
" />
<path d="M-87.6956 -77.3710
L-87.6242 -77.5139
" />
<path d="M-87.6242 -77.5139
L-87.4813 -77.5853
" />
<path d="M-87.4813 -77.5853
L-87.1242 -77.5853
" />
<path d="M-87.1242 -77.5853
L-86.9813 -77.6567
" />
<path d="M-86.4813 -78.0139
L-85.9099 -78.0139
" />
<path d="M-86.2670 -78.5139
L-86.2670 -77.2282
" />
<path d="M-86.2670 -77.2282
L-86.1956 -77.0853
" />
<path d="M-86.1956 -77.0853
L-86.0527 -77.0139
" />
<path d="M-86.0527 -77.0139
L-85.9099 -77.0139
" />
<path d="M-84.8385 -77.0853
L-84.9813 -77.0139
" />
<path d="M-84.9813 -77.0139
L-85.2670 -77.0139
" />
<path d="M-85.2670 -77.0139
L-85.4099 -77.0853
" />
<path d="M-85.4099 -77.0853
L-85.4813 -77.2282
" />
<path d="M-85.4813 -77.2282
L-85.4813 -77.7996
" />
<path d="M-85.4813 -77.7996
L-85.4099 -77.9424
" />
<path d="M-85.4099 -77.9424
L-85.2670 -78.0139
" />
<path d="M-85.2670 -78.0139
L-84.9813 -78.0139
" />
<path d="M-84.9813 -78.0139
L-84.8385 -77.9424
" />
<path d="M-84.8385 -77.9424
L-84.7670 -77.7996
" />
<path d="M-84.7670 -77.7996
L-84.7670 -77.6567
" />
<path d="M-84.7670 -77.6567
L-85.4813 -77.5139
" />
<path d="M-84.1242 -77.1567
L-84.0527 -77.0853
" />
<path d="M-84.0527 -77.0853
L-84.1242 -77.0139
" />
<path d="M-84.1242 -77.0139
L-84.1956 -77.0853
" />
<path d="M-84.1956 -77.0853
L-84.1242 -77.1567
" />
<path d="M-84.1242 -77.1567
L-84.1242 -77.0139
" />
<path d="M-84.1242 -77.9424
L-84.0527 -77.8710
" />
<path d="M-84.0527 -77.8710
L-84.1242 -77.7996
" />
<path d="M-84.1242 -77.7996
L-84.1956 -77.8710
" />
<path d="M-84.1956 -77.8710
L-84.1242 -77.9424
" />
<path d="M-84.1242 -77.9424
L-84.1242 -77.7996
" />
</g><path d="M-112.5800 -76.3000
L-4.5800 -76.3000
" />
<text x="-111.5800" y="-74.1500"
textLength="22.2929" font-size="2.0000" lengthAdjust="spacingAndGlyphs"
text-anchor="start" opacity="0" stroke-opacity="0">KiCad E.D.A. 10.0.1</text>
<g class="stroked-text"><desc>KiCad E.D.A. 10.0.1</desc>
<path d="M-111.1242 -74.2139
L-111.1242 -75.7139
" />
<path d="M-110.2670 -74.2139
L-110.9099 -75.0710
" />
<path d="M-110.2670 -75.7139
L-111.1242 -74.8567
" />
<path d="M-109.6242 -74.2139
L-109.6242 -75.2139
" />
<path d="M-109.6242 -75.7139
L-109.6956 -75.6424
" />
<path d="M-109.6956 -75.6424
L-109.6242 -75.5710
" />
<path d="M-109.6242 -75.5710
L-109.5527 -75.6424
" />
<path d="M-109.5527 -75.6424
L-109.6242 -75.7139
" />
<path d="M-109.6242 -75.7139
L-109.6242 -75.5710
" />
<path d="M-108.0527 -74.3567
L-108.1242 -74.2853
" />
<path d="M-108.1242 -74.2853
L-108.3385 -74.2139
" />
<path d="M-108.3385 -74.2139
L-108.4813 -74.2139
" />
<path d="M-108.4813 -74.2139
L-108.6956 -74.2853
" />
<path d="M-108.6956 -74.2853
L-108.8385 -74.4282
" />
<path d="M-108.8385 -74.4282
L-108.9099 -74.5710
" />
<path d="M-108.9099 -74.5710
L-108.9813 -74.8567
" />
<path d="M-108.9813 -74.8567
L-108.9813 -75.0710
" />
<path d="M-108.9813 -75.0710
L-108.9099 -75.3567
" />
<path d="M-108.9099 -75.3567
L-108.8385 -75.4996
" />
<path d="M-108.8385 -75.4996
L-108.6956 -75.6424
" />
<path d="M-108.6956 -75.6424
L-108.4813 -75.7139
" />
<path d="M-108.4813 -75.7139
L-108.3385 -75.7139
" />
<path d="M-108.3385 -75.7139
L-108.1242 -75.6424
" />
<path d="M-108.1242 -75.6424
L-108.0527 -75.5710
" />
<path d="M-106.7670 -74.2139
L-106.7670 -74.9996
" />
<path d="M-106.7670 -74.9996
L-106.8385 -75.1424
" />
<path d="M-106.8385 -75.1424
L-106.9813 -75.2139
" />
<path d="M-106.9813 -75.2139
L-107.2670 -75.2139
" />
<path d="M-107.2670 -75.2139
L-107.4099 -75.1424
" />
<path d="M-106.7670 -74.2853
L-106.9099 -74.2139
" />
<path d="M-106.9099 -74.2139
L-107.2670 -74.2139
" />
<path d="M-107.2670 -74.2139
L-107.4099 -74.2853
" />
<path d="M-107.4099 -74.2853
L-107.4813 -74.4282
" />
<path d="M-107.4813 -74.4282
L-107.4813 -74.5710
" />
<path d="M-107.4813 -74.5710
L-107.4099 -74.7139
" />
<path d="M-107.4099 -74.7139
L-107.2670 -74.7853
" />
<path d="M-107.2670 -74.7853
L-106.9099 -74.7853
" />
<path d="M-106.9099 -74.7853
L-106.7670 -74.8567
" />
<path d="M-105.4099 -74.2139
L-105.4099 -75.7139
" />
<path d="M-105.4099 -74.2853
L-105.5527 -74.2139
" />
<path d="M-105.5527 -74.2139
L-105.8385 -74.2139
" />
<path d="M-105.8385 -74.2139
L-105.9813 -74.2853
" />
<path d="M-105.9813 -74.2853
L-106.0527 -74.3567
" />
<path d="M-106.0527 -74.3567
L-106.1242 -74.4996
" />
<path d="M-106.1242 -74.4996
L-106.1242 -74.9282
" />
<path d="M-106.1242 -74.9282
L-106.0527 -75.0710
" />
<path d="M-106.0527 -75.0710
L-105.9813 -75.1424
" />
<path d="M-105.9813 -75.1424
L-105.8385 -75.2139
" />
<path d="M-105.8385 -75.2139
L-105.5527 -75.2139
" />
<path d="M-105.5527 -75.2139
L-105.4099 -75.1424
" />
<path d="M-103.5527 -74.9996
L-103.0527 -74.9996
" />
<path d="M-102.8385 -74.2139
L-103.5527 -74.2139
" />
<path d="M-103.5527 -74.2139
L-103.5527 -75.7139
" />
<path d="M-103.5527 -75.7139
L-102.8385 -75.7139
" />
<path d="M-102.1956 -74.3567
L-102.1242 -74.2853
" />
<path d="M-102.1242 -74.2853
L-102.1956 -74.2139
" />
<path d="M-102.1956 -74.2139
L-102.2670 -74.2853
" />
<path d="M-102.2670 -74.2853
L-102.1956 -74.3567
" />
<path d="M-102.1956 -74.3567
L-102.1956 -74.2139
" />
<path d="M-101.4813 -74.2139
L-101.4813 -75.7139
" />
<path d="M-101.4813 -75.7139
L-101.1242 -75.7139
" />
<path d="M-101.1242 -75.7139
L-100.9099 -75.6424
" />
<path d="M-100.9099 -75.6424
L-100.7670 -75.4996
" />
<path d="M-100.7670 -75.4996
L-100.6956 -75.3567
" />
<path d="M-100.6956 -75.3567
L-100.6242 -75.0710
" />
<path d="M-100.6242 -75.0710
L-100.6242 -74.8567
" />
<path d="M-100.6242 -74.8567
L-100.6956 -74.5710
" />
<path d="M-100.6956 -74.5710
L-100.7670 -74.4282
" />
<path d="M-100.7670 -74.4282
L-100.9099 -74.2853
" />
<path d="M-100.9099 -74.2853
L-101.1242 -74.2139
" />
<path d="M-101.1242 -74.2139
L-101.4813 -74.2139
" />
<path d="M-99.9813 -74.3567
L-99.9099 -74.2853
" />
<path d="M-99.9099 -74.2853
L-99.9813 -74.2139
" />
<path d="M-99.9813 -74.2139
L-100.0527 -74.2853
" />
<path d="M-100.0527 -74.2853
L-99.9813 -74.3567
" />
<path d="M-99.9813 -74.3567
L-99.9813 -74.2139
" />
<path d="M-99.3385 -74.6424
L-98.6242 -74.6424
" />
<path d="M-99.4813 -74.2139
L-98.9813 -75.7139
" />
<path d="M-98.9813 -75.7139
L-98.4813 -74.2139
" />
<path d="M-97.9813 -74.3567
L-97.9099 -74.2853
" />
<path d="M-97.9099 -74.2853
L-97.9813 -74.2139
" />
<path d="M-97.9813 -74.2139
L-98.0527 -74.2853
" />
<path d="M-98.0527 -74.2853
L-97.9813 -74.3567
" />
<path d="M-97.9813 -74.3567
L-97.9813 -74.2139
" />
<path d="M-95.3385 -74.2139
L-96.1956 -74.2139
" />
<path d="M-95.7670 -74.2139
L-95.7670 -75.7139
" />
<path d="M-95.7670 -75.7139
L-95.9099 -75.4996
" />
<path d="M-95.9099 -75.4996
L-96.0527 -75.3567
" />
<path d="M-96.0527 -75.3567
L-96.1956 -75.2853
" />
<path d="M-94.4099 -75.7139
L-94.2670 -75.7139
" />
<path d="M-94.2670 -75.7139
L-94.1242 -75.6424
" />
<path d="M-94.1242 -75.6424
L-94.0527 -75.5710
" />
<path d="M-94.0527 -75.5710
L-93.9813 -75.4282
" />
<path d="M-93.9813 -75.4282
L-93.9099 -75.1424
" />
<path d="M-93.9099 -75.1424
L-93.9099 -74.7853
" />
<path d="M-93.9099 -74.7853
L-93.9813 -74.4996
" />
<path d="M-93.9813 -74.4996
L-94.0527 -74.3567
" />
<path d="M-94.0527 -74.3567
L-94.1242 -74.2853
" />
<path d="M-94.1242 -74.2853
L-94.2670 -74.2139
" />
<path d="M-94.2670 -74.2139
L-94.4099 -74.2139
" />
<path d="M-94.4099 -74.2139
L-94.5527 -74.2853
" />
<path d="M-94.5527 -74.2853
L-94.6242 -74.3567
" />
<path d="M-94.6242 -74.3567
L-94.6956 -74.4996
" />
<path d="M-94.6956 -74.4996
L-94.7670 -74.7853
" />
<path d="M-94.7670 -74.7853
L-94.7670 -75.1424
" />
<path d="M-94.7670 -75.1424
L-94.6956 -75.4282
" />
<path d="M-94.6956 -75.4282
L-94.6242 -75.5710
" />
<path d="M-94.6242 -75.5710
L-94.5527 -75.6424
" />
<path d="M-94.5527 -75.6424
L-94.4099 -75.7139
" />
<path d="M-93.2670 -74.3567
L-93.1956 -74.2853
" />
<path d="M-93.1956 -74.2853
L-93.2670 -74.2139
" />
<path d="M-93.2670 -74.2139
L-93.3385 -74.2853
" />
<path d="M-93.3385 -74.2853
L-93.2670 -74.3567
" />
<path d="M-93.2670 -74.3567
L-93.2670 -74.2139
" />
<path d="M-92.2670 -75.7139
L-92.1242 -75.7139
" />
<path d="M-92.1242 -75.7139
L-91.9813 -75.6424
" />
<path d="M-91.9813 -75.6424
L-91.9099 -75.5710
" />
<path d="M-91.9099 -75.5710
L-91.8385 -75.4282
" />
<path d="M-91.8385 -75.4282
L-91.7670 -75.1424
" />
<path d="M-91.7670 -75.1424
L-91.7670 -74.7853
" />
<path d="M-91.7670 -74.7853
L-91.8385 -74.4996
" />
<path d="M-91.8385 -74.4996
L-91.9099 -74.3567
" />
<path d="M-91.9099 -74.3567
L-91.9813 -74.2853
" />
<path d="M-91.9813 -74.2853
L-92.1242 -74.2139
" />
<path d="M-92.1242 -74.2139
L-92.2670 -74.2139
" />
<path d="M-92.2670 -74.2139
L-92.4099 -74.2853
" />
<path d="M-92.4099 -74.2853
L-92.4813 -74.3567
" />
<path d="M-92.4813 -74.3567
L-92.5527 -74.4996
" />
<path d="M-92.5527 -74.4996
L-92.6242 -74.7853
" />
<path d="M-92.6242 -74.7853
L-92.6242 -75.1424
" />
<path d="M-92.6242 -75.1424
L-92.5527 -75.4282
" />
<path d="M-92.5527 -75.4282
L-92.4813 -75.5710
" />
<path d="M-92.4813 -75.5710
L-92.4099 -75.6424
" />
<path d="M-92.4099 -75.6424
L-92.2670 -75.7139
" />
<path d="M-91.1242 -74.3567
L-91.0527 -74.2853
" />
<path d="M-91.0527 -74.2853
L-91.1242 -74.2139
" />
<path d="M-91.1242 -74.2139
L-91.1956 -74.2853
" />
<path d="M-91.1956 -74.2853
L-91.1242 -74.3567
" />
<path d="M-91.1242 -74.3567
L-91.1242 -74.2139
" />
<path d="M-89.6242 -74.2139
L-90.4813 -74.2139
" />
<path d="M-90.0527 -74.2139
L-90.0527 -75.7139
" />
<path d="M-90.0527 -75.7139
L-90.1956 -75.4996
" />
<path d="M-90.1956 -75.4996
L-90.3385 -75.3567
" />
<path d="M-90.3385 -75.3567
L-90.4813 -75.2853
" />
</g><path d="M-112.5800 -79.3000
L-4.5800 -79.3000
" />
</g>
<g style="fill:none; 
stroke:#C872AB; stroke-width:0.3000; stroke-opacity:1; 
stroke-linecap:round; stroke-linejoin:round;">
<text x="-26.5800" y="-76.9500"
textLength="6.3857" font-size="2.0000" lengthAdjust="spacingAndGlyphs"
text-anchor="start" opacity="0" stroke-opacity="0">Rev: </text>
<g class="stroked-text"><desc>Rev: </desc>
<path d="M-25.1683 -77.0217
L-25.6683 -77.7360
" />
<path d="M-26.0255 -77.0217
L-26.0255 -78.5217
" />
<path d="M-26.0255 -78.5217
L-25.4541 -78.5217
" />
<path d="M-25.4541 -78.5217
L-25.3112 -78.4502
" />
<path d="M-25.3112 -78.4502
L-25.2398 -78.3788
" />
<path d="M-25.2398 -78.3788
L-25.1683 -78.2360
" />
<path d="M-25.1683 -78.2360
L-25.1683 -78.0217
" />
<path d="M-25.1683 -78.0217
L-25.2398 -77.8788
" />
<path d="M-25.2398 -77.8788
L-25.3112 -77.8074
" />
<path d="M-25.3112 -77.8074
L-25.4541 -77.7360
" />
<path d="M-25.4541 -77.7360
L-26.0255 -77.7360
" />
<path d="M-23.9541 -77.0931
L-24.0969 -77.0217
" />
<path d="M-24.0969 -77.0217
L-24.3826 -77.0217
" />
<path d="M-24.3826 -77.0217
L-24.5255 -77.0931
" />
<path d="M-24.5255 -77.0931
L-24.5969 -77.2360
" />
<path d="M-24.5969 -77.2360
L-24.5969 -77.8074
" />
<path d="M-24.5969 -77.8074
L-24.5255 -77.9502
" />
<path d="M-24.5255 -77.9502
L-24.3826 -78.0217
" />
<path d="M-24.3826 -78.0217
L-24.0969 -78.0217
" />
<path d="M-24.0969 -78.0217
L-23.9541 -77.9502
" />
<path d="M-23.9541 -77.9502
L-23.8826 -77.8074
" />
<path d="M-23.8826 -77.8074
L-23.8826 -77.6645
" />
<path d="M-23.8826 -77.6645
L-24.5969 -77.5217
" />
<path d="M-23.3826 -78.0217
L-23.0255 -77.0217
" />
<path d="M-23.0255 -77.0217
L-22.6683 -78.0217
" />
<path d="M-22.0969 -77.1645
L-22.0255 -77.0931
" />
<path d="M-22.0255 -77.0931
L-22.0969 -77.0217
" />
<path d="M-22.0969 -77.0217
L-22.1683 -77.0931
" />
<path d="M-22.1683 -77.0931
L-22.0969 -77.1645
" />
<path d="M-22.0969 -77.1645
L-22.0969 -77.0217
" />
<path d="M-22.0969 -77.9502
L-22.0255 -77.8788
" />
<path d="M-22.0255 -77.8788
L-22.0969 -77.8074
" />
<path d="M-22.0969 -77.8074
L-22.1683 -77.8788
" />
<path d="M-22.1683 -77.8788
L-22.0969 -77.9502
" />
<path d="M-22.0969 -77.9502
L-22.0969 -77.8074
" />
</g></g>
<g style="fill:none; 
stroke:#C872AB; stroke-width:0.1500; stroke-opacity:1; 
stroke-linecap:round; stroke-linejoin:round;">
<text x="-111.5800" y="-76.9500"
textLength="11.6500" font-size="2.0000" lengthAdjust="spacingAndGlyphs"
text-anchor="start" opacity="0" stroke-opacity="0">Size: User</text>
<g class="stroked-text"><desc>Size: User</desc>
<path d="M-111.1956 -77.0853
L-110.9813 -77.0139
" />
<path d="M-110.9813 -77.0139
L-110.6242 -77.0139
" />
<path d="M-110.6242 -77.0139
L-110.4813 -77.0853
" />
<path d="M-110.4813 -77.0853
L-110.4099 -77.1567
" />
<path d="M-110.4099 -77.1567
L-110.3385 -77.2996
" />
<path d="M-110.3385 -77.2996
L-110.3385 -77.4424
" />
<path d="M-110.3385 -77.4424
L-110.4099 -77.5853
" />
<path d="M-110.4099 -77.5853
L-110.4813 -77.6567
" />
<path d="M-110.4813 -77.6567
L-110.6242 -77.7282
" />
<path d="M-110.6242 -77.7282
L-110.9099 -77.7996
" />
<path d="M-110.9099 -77.7996
L-111.0527 -77.8710
" />
<path d="M-111.0527 -77.8710
L-111.1242 -77.9424
" />
<path d="M-111.1242 -77.9424
L-111.1956 -78.0853
" />
<path d="M-111.1956 -78.0853
L-111.1956 -78.2282
" />
<path d="M-111.1956 -78.2282
L-111.1242 -78.3710
" />
<path d="M-111.1242 -78.3710
L-111.0527 -78.4424
" />
<path d="M-111.0527 -78.4424
L-110.9099 -78.5139
" />
<path d="M-110.9099 -78.5139
L-110.5527 -78.5139
" />
<path d="M-110.5527 -78.5139
L-110.3385 -78.4424
" />
<path d="M-109.6956 -77.0139
L-109.6956 -78.0139
" />
<path d="M-109.6956 -78.5139
L-109.7670 -78.4424
" />
<path d="M-109.7670 -78.4424
L-109.6956 -78.3710
" />
<path d="M-109.6956 -78.3710
L-109.6242 -78.4424
" />
<path d="M-109.6242 -78.4424
L-109.6956 -78.5139
" />
<path d="M-109.6956 -78.5139
L-109.6956 -78.3710
" />
<path d="M-109.1242 -78.0139
L-108.3385 -78.0139
" />
<path d="M-108.3385 -78.0139
L-109.1242 -77.0139
" />
<path d="M-109.1242 -77.0139
L-108.3385 -77.0139
" />
<path d="M-107.1956 -77.0853
L-107.3385 -77.0139
" />
<path d="M-107.3385 -77.0139
L-107.6242 -77.0139
" />
<path d="M-107.6242 -77.0139
L-107.7670 -77.0853
" />
<path d="M-107.7670 -77.0853
L-107.8385 -77.2282
" />
<path d="M-107.8385 -77.2282
L-107.8385 -77.7996
" />
<path d="M-107.8385 -77.7996
L-107.7670 -77.9424
" />
<path d="M-107.7670 -77.9424
L-107.6242 -78.0139
" />
<path d="M-107.6242 -78.0139
L-107.3385 -78.0139
" />
<path d="M-107.3385 -78.0139
L-107.1956 -77.9424
" />
<path d="M-107.1956 -77.9424
L-107.1242 -77.7996
" />
<path d="M-107.1242 -77.7996
L-107.1242 -77.6567
" />
<path d="M-107.1242 -77.6567
L-107.8385 -77.5139
" />
<path d="M-106.4813 -77.1567
L-106.4099 -77.0853
" />
<path d="M-106.4099 -77.0853
L-106.4813 -77.0139
" />
<path d="M-106.4813 -77.0139
L-106.5527 -77.0853
" />
<path d="M-106.5527 -77.0853
L-106.4813 -77.1567
" />
<path d="M-106.4813 -77.1567
L-106.4813 -77.0139
" />
<path d="M-106.4813 -77.9424
L-106.4099 -77.8710
" />
<path d="M-106.4099 -77.8710
L-106.4813 -77.7996
" />
<path d="M-106.4813 -77.7996
L-106.5527 -77.8710
" />
<path d="M-106.5527 -77.8710
L-106.4813 -77.9424
" />
<path d="M-106.4813 -77.9424
L-106.4813 -77.7996
" />
<path d="M-104.6242 -78.5139
L-104.6242 -77.2996
" />
<path d="M-104.6242 -77.2996
L-104.5527 -77.1567
" />
<path d="M-104.5527 -77.1567
L-104.4813 -77.0853
" />
<path d="M-104.4813 -77.0853
L-104.3385 -77.0139
" />
<path d="M-104.3385 -77.0139
L-104.0527 -77.0139
" />
<path d="M-104.0527 -77.0139
L-103.9099 -77.0853
" />
<path d="M-103.9099 -77.0853
L-103.8385 -77.1567
" />
<path d="M-103.8385 -77.1567
L-103.7670 -77.2996
" />
<path d="M-103.7670 -77.2996
L-103.7670 -78.5139
" />
<path d="M-103.1242 -77.0853
L-102.9813 -77.0139
" />
<path d="M-102.9813 -77.0139
L-102.6956 -77.0139
" />
<path d="M-102.6956 -77.0139
L-102.5527 -77.0853
" />
<path d="M-102.5527 -77.0853
L-102.4813 -77.2282
" />
<path d="M-102.4813 -77.2282
L-102.4813 -77.2996
" />
<path d="M-102.4813 -77.2996
L-102.5527 -77.4424
" />
<path d="M-102.5527 -77.4424
L-102.6956 -77.5139
" />
<path d="M-102.6956 -77.5139
L-102.9099 -77.5139
" />
<path d="M-102.9099 -77.5139
L-103.0527 -77.5853
" />
<path d="M-103.0527 -77.5853
L-103.1242 -77.7282
" />
<path d="M-103.1242 -77.7282
L-103.1242 -77.7996
" />
<path d="M-103.1242 -77.7996
L-103.0527 -77.9424
" />
<path d="M-103.0527 -77.9424
L-102.9099 -78.0139
" />
<path d="M-102.9099 -78.0139
L-102.6956 -78.0139
" />
<path d="M-102.6956 -78.0139
L-102.5527 -77.9424
" />
<path d="M-101.2670 -77.0853
L-101.4099 -77.0139
" />
<path d="M-101.4099 -77.0139
L-101.6956 -77.0139
" />
<path d="M-101.6956 -77.0139
L-101.8385 -77.0853
" />
<path d="M-101.8385 -77.0853
L-101.9099 -77.2282
" />
<path d="M-101.9099 -77.2282
L-101.9099 -77.7996
" />
<path d="M-101.9099 -77.7996
L-101.8385 -77.9424
" />
<path d="M-101.8385 -77.9424
L-101.6956 -78.0139
" />
<path d="M-101.6956 -78.0139
L-101.4099 -78.0139
" />
<path d="M-101.4099 -78.0139
L-101.2670 -77.9424
" />
<path d="M-101.2670 -77.9424
L-101.1956 -77.7996
" />
<path d="M-101.1956 -77.7996
L-101.1956 -77.6567
" />
<path d="M-101.1956 -77.6567
L-101.9099 -77.5139
" />
<path d="M-100.5527 -77.0139
L-100.5527 -78.0139
" />
<path d="M-100.5527 -77.7282
L-100.4813 -77.8710
" />
<path d="M-100.4813 -77.8710
L-100.4099 -77.9424
" />
<path d="M-100.4099 -77.9424
L-100.2670 -78.0139
" />
<path d="M-100.2670 -78.0139
L-100.1242 -78.0139
" />
</g><text x="-26.5800" y="-74.1500"
textLength="8.5071" font-size="2.0000" lengthAdjust="spacingAndGlyphs"
text-anchor="start" opacity="0" stroke-opacity="0">Id: 1/1</text>
<g class="stroked-text"><desc>Id: 1/1</desc>
<path d="M-26.1242 -74.2139
L-26.1242 -75.7139
" />
<path d="M-24.7670 -74.2139
L-24.7670 -75.7139
" />
<path d="M-24.7670 -74.2853
L-24.9099 -74.2139
" />
<path d="M-24.9099 -74.2139
L-25.1956 -74.2139
" />
<path d="M-25.1956 -74.2139
L-25.3385 -74.2853
" />
<path d="M-25.3385 -74.2853
L-25.4099 -74.3567
" />
<path d="M-25.4099 -74.3567
L-25.4813 -74.4996
" />
<path d="M-25.4813 -74.4996
L-25.4813 -74.9282
" />
<path d="M-25.4813 -74.9282
L-25.4099 -75.0710
" />
<path d="M-25.4099 -75.0710
L-25.3385 -75.1424
" />
<path d="M-25.3385 -75.1424
L-25.1956 -75.2139
" />
<path d="M-25.1956 -75.2139
L-24.9099 -75.2139
" />
<path d="M-24.9099 -75.2139
L-24.7670 -75.1424
" />
<path d="M-24.0527 -74.3567
L-23.9813 -74.2853
" />
<path d="M-23.9813 -74.2853
L-24.0527 -74.2139
" />
<path d="M-24.0527 -74.2139
L-24.1242 -74.2853
" />
<path d="M-24.1242 -74.2853
L-24.0527 -74.3567
" />
<path d="M-24.0527 -74.3567
L-24.0527 -74.2139
" />
<path d="M-24.0527 -75.1424
L-23.9813 -75.0710
" />
<path d="M-23.9813 -75.0710
L-24.0527 -74.9996
" />
<path d="M-24.0527 -74.9996
L-24.1242 -75.0710
" />
<path d="M-24.1242 -75.0710
L-24.0527 -75.1424
" />
<path d="M-24.0527 -75.1424
L-24.0527 -74.9996
" />
<path d="M-21.4099 -74.2139
L-22.2670 -74.2139
" />
<path d="M-21.8385 -74.2139
L-21.8385 -75.7139
" />
<path d="M-21.8385 -75.7139
L-21.9813 -75.4996
" />
<path d="M-21.9813 -75.4996
L-22.1242 -75.3567
" />
<path d="M-22.1242 -75.3567
L-22.2670 -75.2853
" />
<path d="M-19.6956 -75.7853
L-20.9813 -73.8567
" />
<path d="M-18.4099 -74.2139
L-19.2670 -74.2139
" />
<path d="M-18.8385 -74.2139
L-18.8385 -75.7139
" />
<path d="M-18.8385 -75.7139
L-18.9813 -75.4996
" />
<path d="M-18.9813 -75.4996
L-19.1242 -75.3567
" />
<path d="M-19.1242 -75.3567
L-19.2670 -75.2853
" />
</g><path d="M-112.5800 -83.3000
L-4.5800 -83.3000
" />
</g>
<g style="fill:none; 
stroke:#C872AB; stroke-width:0.4000; stroke-opacity:1; 
stroke-linecap:round; stroke-linejoin:round;">
<text x="-111.5800" y="-80.5000"
textLength="9.6571" font-size="2.6667" lengthAdjust="spacingAndGlyphs"
text-anchor="start" opacity="0" stroke-opacity="0">Title: </text>
<g class="stroked-text"><desc>Title: </desc>
<path d="M-110.8883 -82.5956
L-109.7454 -82.5956
" />
<path d="M-110.5668 -80.5956
L-110.3168 -82.5956
" />
<path d="M-109.3287 -80.5956
L-109.1621 -81.9289
" />
<path d="M-109.0787 -82.5956
L-109.1859 -82.5003
" />
<path d="M-109.1859 -82.5003
L-109.1026 -82.4051
" />
<path d="M-109.1026 -82.4051
L-108.9954 -82.5003
" />
<path d="M-108.9954 -82.5003
L-109.0787 -82.5956
" />
<path d="M-109.0787 -82.5956
L-109.1026 -82.4051
" />
<path d="M-108.4954 -81.9289
L-107.7335 -81.9289
" />
<path d="M-108.1264 -82.5956
L-108.3407 -80.8813
" />
<path d="M-108.3407 -80.8813
L-108.2692 -80.6908
" />
<path d="M-108.2692 -80.6908
L-108.0907 -80.5956
" />
<path d="M-108.0907 -80.5956
L-107.9002 -80.5956
" />
<path d="M-106.9478 -80.5956
L-107.1264 -80.6908
" />
<path d="M-107.1264 -80.6908
L-107.1978 -80.8813
" />
<path d="M-107.1978 -80.8813
L-106.9835 -82.5956
" />
<path d="M-105.4121 -80.6908
L-105.6145 -80.5956
" />
<path d="M-105.6145 -80.5956
L-105.9954 -80.5956
" />
<path d="M-105.9954 -80.5956
L-106.1740 -80.6908
" />
<path d="M-106.1740 -80.6908
L-106.2454 -80.8813
" />
<path d="M-106.2454 -80.8813
L-106.1502 -81.6432
" />
<path d="M-106.1502 -81.6432
L-106.0311 -81.8337
" />
<path d="M-106.0311 -81.8337
L-105.8287 -81.9289
" />
<path d="M-105.8287 -81.9289
L-105.4478 -81.9289
" />
<path d="M-105.4478 -81.9289
L-105.2692 -81.8337
" />
<path d="M-105.2692 -81.8337
L-105.1978 -81.6432
" />
<path d="M-105.1978 -81.6432
L-105.2216 -81.4527
" />
<path d="M-105.2216 -81.4527
L-106.1978 -81.2622
" />
<path d="M-104.4478 -80.7860
L-104.3645 -80.6908
" />
<path d="M-104.3645 -80.6908
L-104.4716 -80.5956
" />
<path d="M-104.4716 -80.5956
L-104.5549 -80.6908
" />
<path d="M-104.5549 -80.6908
L-104.4478 -80.7860
" />
<path d="M-104.4478 -80.7860
L-104.4716 -80.5956
" />
<path d="M-104.3168 -81.8337
L-104.2335 -81.7384
" />
<path d="M-104.2335 -81.7384
L-104.3407 -81.6432
" />
<path d="M-104.3407 -81.6432
L-104.4240 -81.7384
" />
<path d="M-104.4240 -81.7384
L-104.3168 -81.8337
" />
<path d="M-104.3168 -81.8337
L-104.3407 -81.6432
" />
</g></g>
<g style="fill:none; 
stroke:#C872AB; stroke-width:0.1500; stroke-opacity:1; 
stroke-linecap:round; stroke-linejoin:round;">
<text x="-111.5800" y="-84.3500"
textLength="62.2214" font-size="2.0000" lengthAdjust="spacingAndGlyphs"
text-anchor="start" opacity="0" stroke-opacity="0">File: daanmem_esp32_board_FO2DABBFD842.kicad_pcb</text>
<g class="stroked-text"><desc>File: daanmem_esp32_board_FO2DABBFD842.kicad_pcb</desc>
<path d="M-110.6242 -85.1996
L-111.1242 -85.1996
" />
<path d="M-111.1242 -84.4139
L-111.1242 -85.9139
" />
<path d="M-111.1242 -85.9139
L-110.4099 -85.9139
" />
<path d="M-109.8385 -84.4139
L-109.8385 -85.4139
" />
<path d="M-109.8385 -85.9139
L-109.9099 -85.8424
" />
<path d="M-109.9099 -85.8424
L-109.8385 -85.7710
" />
<path d="M-109.8385 -85.7710
L-109.7670 -85.8424
" />
<path d="M-109.7670 -85.8424
L-109.8385 -85.9139
" />
<path d="M-109.8385 -85.9139
L-109.8385 -85.7710
" />
<path d="M-108.9099 -84.4139
L-109.0527 -84.4853
" />
<path d="M-109.0527 -84.4853
L-109.1242 -84.6282
" />
<path d="M-109.1242 -84.6282
L-109.1242 -85.9139
" />
<path d="M-107.7670 -84.4853
L-107.9099 -84.4139
" />
<path d="M-107.9099 -84.4139
L-108.1956 -84.4139
" />
<path d="M-108.1956 -84.4139
L-108.3385 -84.4853
" />
<path d="M-108.3385 -84.4853
L-108.4099 -84.6282
" />
<path d="M-108.4099 -84.6282
L-108.4099 -85.1996
" />
<path d="M-108.4099 -85.1996
L-108.3385 -85.3424
" />
<path d="M-108.3385 -85.3424
L-108.1956 -85.4139
" />
<path d="M-108.1956 -85.4139
L-107.9099 -85.4139
" />
<path d="M-107.9099 -85.4139
L-107.7670 -85.3424
" />
<path d="M-107.7670 -85.3424
L-107.6956 -85.1996
" />
<path d="M-107.6956 -85.1996
L-107.6956 -85.0567
" />
<path d="M-107.6956 -85.0567
L-108.4099 -84.9139
" />
<path d="M-107.0527 -84.5567
L-106.9813 -84.4853
" />
<path d="M-106.9813 -84.4853
L-107.0527 -84.4139
" />
<path d="M-107.0527 -84.4139
L-107.1242 -84.4853
" />
<path d="M-107.1242 -84.4853
L-107.0527 -84.5567
" />
<path d="M-107.0527 -84.5567
L-107.0527 -84.4139
" />
<path d="M-107.0527 -85.3424
L-106.9813 -85.2710
" />
<path d="M-106.9813 -85.2710
L-107.0527 -85.1996
" />
<path d="M-107.0527 -85.1996
L-107.1242 -85.2710
" />
<path d="M-107.1242 -85.2710
L-107.0527 -85.3424
" />
<path d="M-107.0527 -85.3424
L-107.0527 -85.1996
" />
<path d="M-104.5527 -84.4139
L-104.5527 -85.9139
" />
<path d="M-104.5527 -84.4853
L-104.6956 -84.4139
" />
<path d="M-104.6956 -84.4139
L-104.9813 -84.4139
" />
<path d="M-104.9813 -84.4139
L-105.1242 -84.4853
" />
<path d="M-105.1242 -84.4853
L-105.1956 -84.5567
" />
<path d="M-105.1956 -84.5567
L-105.2670 -84.6996
" />
<path d="M-105.2670 -84.6996
L-105.2670 -85.1282
" />
<path d="M-105.2670 -85.1282
L-105.1956 -85.2710
" />
<path d="M-105.1956 -85.2710
L-105.1242 -85.3424
" />
<path d="M-105.1242 -85.3424
L-104.9813 -85.4139
" />
<path d="M-104.9813 -85.4139
L-104.6956 -85.4139
" />
<path d="M-104.6956 -85.4139
L-104.5527 -85.3424
" />
<path d="M-103.1956 -84.4139
L-103.1956 -85.1996
" />
<path d="M-103.1956 -85.1996
L-103.2670 -85.3424
" />
<path d="M-103.2670 -85.3424
L-103.4099 -85.4139
" />
<path d="M-103.4099 -85.4139
L-103.6956 -85.4139
" />
<path d="M-103.6956 -85.4139
L-103.8385 -85.3424
" />
<path d="M-103.1956 -84.4853
L-103.3385 -84.4139
" />
<path d="M-103.3385 -84.4139
L-103.6956 -84.4139
" />
<path d="M-103.6956 -84.4139
L-103.8385 -84.4853
" />
<path d="M-103.8385 -84.4853
L-103.9099 -84.6282
" />
<path d="M-103.9099 -84.6282
L-103.9099 -84.7710
" />
<path d="M-103.9099 -84.7710
L-103.8385 -84.9139
" />
<path d="M-103.8385 -84.9139
L-103.6956 -84.9853
" />
<path d="M-103.6956 -84.9853
L-103.3385 -84.9853
" />
<path d="M-103.3385 -84.9853
L-103.1956 -85.0567
" />
<path d="M-101.8385 -84.4139
L-101.8385 -85.1996
" />
<path d="M-101.8385 -85.1996
L-101.9099 -85.3424
" />
<path d="M-101.9099 -85.3424
L-102.0527 -85.4139
" />
<path d="M-102.0527 -85.4139
L-102.3385 -85.4139
" />
<path d="M-102.3385 -85.4139
L-102.4813 -85.3424
" />
<path d="M-101.8385 -84.4853
L-101.9813 -84.4139
" />
<path d="M-101.9813 -84.4139
L-102.3385 -84.4139
" />
<path d="M-102.3385 -84.4139
L-102.4813 -84.4853
" />
<path d="M-102.4813 -84.4853
L-102.5527 -84.6282
" />
<path d="M-102.5527 -84.6282
L-102.5527 -84.7710
" />
<path d="M-102.5527 -84.7710
L-102.4813 -84.9139
" />
<path d="M-102.4813 -84.9139
L-102.3385 -84.9853
" />
<path d="M-102.3385 -84.9853
L-101.9813 -84.9853
" />
<path d="M-101.9813 -84.9853
L-101.8385 -85.0567
" />
<path d="M-101.1242 -85.4139
L-101.1242 -84.4139
" />
<path d="M-101.1242 -85.2710
L-101.0527 -85.3424
" />
<path d="M-101.0527 -85.3424
L-100.9099 -85.4139
" />
<path d="M-100.9099 -85.4139
L-100.6956 -85.4139
" />
<path d="M-100.6956 -85.4139
L-100.5527 -85.3424
" />
<path d="M-100.5527 -85.3424
L-100.4813 -85.1996
" />
<path d="M-100.4813 -85.1996
L-100.4813 -84.4139
" />
<path d="M-99.7670 -84.4139
L-99.7670 -85.4139
" />
<path d="M-99.7670 -85.2710
L-99.6956 -85.3424
" />
<path d="M-99.6956 -85.3424
L-99.5527 -85.4139
" />
<path d="M-99.5527 -85.4139
L-99.3385 -85.4139
" />
<path d="M-99.3385 -85.4139
L-99.1956 -85.3424
" />
<path d="M-99.1956 -85.3424
L-99.1242 -85.1996
" />
<path d="M-99.1242 -85.1996
L-99.1242 -84.4139
" />
<path d="M-99.1242 -85.1996
L-99.0527 -85.3424
" />
<path d="M-99.0527 -85.3424
L-98.9099 -85.4139
" />
<path d="M-98.9099 -85.4139
L-98.6956 -85.4139
" />
<path d="M-98.6956 -85.4139
L-98.5527 -85.3424
" />
<path d="M-98.5527 -85.3424
L-98.4813 -85.1996
" />
<path d="M-98.4813 -85.1996
L-98.4813 -84.4139
" />
<path d="M-97.1956 -84.4853
L-97.3385 -84.4139
" />
<path d="M-97.3385 -84.4139
L-97.6242 -84.4139
" />
<path d="M-97.6242 -84.4139
L-97.7670 -84.4853
" />
<path d="M-97.7670 -84.4853
L-97.8385 -84.6282
" />
<path d="M-97.8385 -84.6282
L-97.8385 -85.1996
" />
<path d="M-97.8385 -85.1996
L-97.7670 -85.3424
" />
<path d="M-97.7670 -85.3424
L-97.6242 -85.4139
" />
<path d="M-97.6242 -85.4139
L-97.3385 -85.4139
" />
<path d="M-97.3385 -85.4139
L-97.1956 -85.3424
" />
<path d="M-97.1956 -85.3424
L-97.1242 -85.1996
" />
<path d="M-97.1242 -85.1996
L-97.1242 -85.0567
" />
<path d="M-97.1242 -85.0567
L-97.8385 -84.9139
" />
<path d="M-96.4813 -84.4139
L-96.4813 -85.4139
" />
<path d="M-96.4813 -85.2710
L-96.4099 -85.3424
" />
<path d="M-96.4099 -85.3424
L-96.2670 -85.4139
" />
<path d="M-96.2670 -85.4139
L-96.0527 -85.4139
" />
<path d="M-96.0527 -85.4139
L-95.9099 -85.3424
" />
<path d="M-95.9099 -85.3424
L-95.8385 -85.1996
" />
<path d="M-95.8385 -85.1996
L-95.8385 -84.4139
" />
<path d="M-95.8385 -85.1996
L-95.7670 -85.3424
" />
<path d="M-95.7670 -85.3424
L-95.6242 -85.4139
" />
<path d="M-95.6242 -85.4139
L-95.4099 -85.4139
" />
<path d="M-95.4099 -85.4139
L-95.2670 -85.3424
" />
<path d="M-95.2670 -85.3424
L-95.1956 -85.1996
" />
<path d="M-95.1956 -85.1996
L-95.1956 -84.4139
" />
<path d="M-94.8385 -84.2710
L-93.6956 -84.2710
" />
<path d="M-92.7670 -84.4853
L-92.9099 -84.4139
" />
<path d="M-92.9099 -84.4139
L-93.1956 -84.4139
" />
<path d="M-93.1956 -84.4139
L-93.3385 -84.4853
" />
<path d="M-93.3385 -84.4853
L-93.4099 -84.6282
" />
<path d="M-93.4099 -84.6282
L-93.4099 -85.1996
" />
<path d="M-93.4099 -85.1996
L-93.3385 -85.3424
" />
<path d="M-93.3385 -85.3424
L-93.1956 -85.4139
" />
<path d="M-93.1956 -85.4139
L-92.9099 -85.4139
" />
<path d="M-92.9099 -85.4139
L-92.7670 -85.3424
" />
<path d="M-92.7670 -85.3424
L-92.6956 -85.1996
" />
<path d="M-92.6956 -85.1996
L-92.6956 -85.0567
" />
<path d="M-92.6956 -85.0567
L-93.4099 -84.9139
" />
<path d="M-92.1242 -84.4853
L-91.9813 -84.4139
" />
<path d="M-91.9813 -84.4139
L-91.6956 -84.4139
" />
<path d="M-91.6956 -84.4139
L-91.5527 -84.4853
" />
<path d="M-91.5527 -84.4853
L-91.4813 -84.6282
" />
<path d="M-91.4813 -84.6282
L-91.4813 -84.6996
" />
<path d="M-91.4813 -84.6996
L-91.5527 -84.8424
" />
<path d="M-91.5527 -84.8424
L-91.6956 -84.9139
" />
<path d="M-91.6956 -84.9139
L-91.9099 -84.9139
" />
<path d="M-91.9099 -84.9139
L-92.0527 -84.9853
" />
<path d="M-92.0527 -84.9853
L-92.1242 -85.1282
" />
<path d="M-92.1242 -85.1282
L-92.1242 -85.1996
" />
<path d="M-92.1242 -85.1996
L-92.0527 -85.3424
" />
<path d="M-92.0527 -85.3424
L-91.9099 -85.4139
" />
<path d="M-91.9099 -85.4139
L-91.6956 -85.4139
" />
<path d="M-91.6956 -85.4139
L-91.5527 -85.3424
" />
<path d="M-90.8385 -85.4139
L-90.8385 -83.9139
" />
<path d="M-90.8385 -85.3424
L-90.6956 -85.4139
" />
<path d="M-90.6956 -85.4139
L-90.4099 -85.4139
" />
<path d="M-90.4099 -85.4139
L-90.2670 -85.3424
" />
<path d="M-90.2670 -85.3424
L-90.1956 -85.2710
" />
<path d="M-90.1956 -85.2710
L-90.1242 -85.1282
" />
<path d="M-90.1242 -85.1282
L-90.1242 -84.6996
" />
<path d="M-90.1242 -84.6996
L-90.1956 -84.5567
" />
<path d="M-90.1956 -84.5567
L-90.2670 -84.4853
" />
<path d="M-90.2670 -84.4853
L-90.4099 -84.4139
" />
<path d="M-90.4099 -84.4139
L-90.6956 -84.4139
" />
<path d="M-90.6956 -84.4139
L-90.8385 -84.4853
" />
<path d="M-89.6242 -85.9139
L-88.6956 -85.9139
" />
<path d="M-88.6956 -85.9139
L-89.1956 -85.3424
" />
<path d="M-89.1956 -85.3424
L-88.9813 -85.3424
" />
<path d="M-88.9813 -85.3424
L-88.8385 -85.2710
" />
<path d="M-88.8385 -85.2710
L-88.7670 -85.1996
" />
<path d="M-88.7670 -85.1996
L-88.6956 -85.0567
" />
<path d="M-88.6956 -85.0567
L-88.6956 -84.6996
" />
<path d="M-88.6956 -84.6996
L-88.7670 -84.5567
" />
<path d="M-88.7670 -84.5567
L-88.8385 -84.4853
" />
<path d="M-88.8385 -84.4853
L-88.9813 -84.4139
" />
<path d="M-88.9813 -84.4139
L-89.4099 -84.4139
" />
<path d="M-89.4099 -84.4139
L-89.5527 -84.4853
" />
<path d="M-89.5527 -84.4853
L-89.6242 -84.5567
" />
<path d="M-88.1242 -85.7710
L-88.0527 -85.8424
" />
<path d="M-88.0527 -85.8424
L-87.9099 -85.9139
" />
<path d="M-87.9099 -85.9139
L-87.5527 -85.9139
" />
<path d="M-87.5527 -85.9139
L-87.4099 -85.8424
" />
<path d="M-87.4099 -85.8424
L-87.3385 -85.7710
" />
<path d="M-87.3385 -85.7710
L-87.2670 -85.6282
" />
<path d="M-87.2670 -85.6282
L-87.2670 -85.4853
" />
<path d="M-87.2670 -85.4853
L-87.3385 -85.2710
" />
<path d="M-87.3385 -85.2710
L-88.1956 -84.4139
" />
<path d="M-88.1956 -84.4139
L-87.2670 -84.4139
" />
<path d="M-86.9813 -84.2710
L-85.8385 -84.2710
" />
<path d="M-85.4813 -84.4139
L-85.4813 -85.9139
" />
<path d="M-85.4813 -85.3424
L-85.3385 -85.4139
" />
<path d="M-85.3385 -85.4139
L-85.0527 -85.4139
" />
<path d="M-85.0527 -85.4139
L-84.9099 -85.3424
" />
<path d="M-84.9099 -85.3424
L-84.8385 -85.2710
" />
<path d="M-84.8385 -85.2710
L-84.7670 -85.1282
" />
<path d="M-84.7670 -85.1282
L-84.7670 -84.6996
" />
<path d="M-84.7670 -84.6996
L-84.8385 -84.5567
" />
<path d="M-84.8385 -84.5567
L-84.9099 -84.4853
" />
<path d="M-84.9099 -84.4853
L-85.0527 -84.4139
" />
<path d="M-85.0527 -84.4139
L-85.3385 -84.4139
" />
<path d="M-85.3385 -84.4139
L-85.4813 -84.4853
" />
<path d="M-83.9099 -84.4139
L-84.0527 -84.4853
" />
<path d="M-84.0527 -84.4853
L-84.1242 -84.5567
" />
<path d="M-84.1242 -84.5567
L-84.1956 -84.6996
" />
<path d="M-84.1956 -84.6996
L-84.1956 -85.1282
" />
<path d="M-84.1956 -85.1282
L-84.1242 -85.2710
" />
<path d="M-84.1242 -85.2710
L-84.0527 -85.3424
" />
<path d="M-84.0527 -85.3424
L-83.9099 -85.4139
" />
<path d="M-83.9099 -85.4139
L-83.6956 -85.4139
" />
<path d="M-83.6956 -85.4139
L-83.5527 -85.3424
" />
<path d="M-83.5527 -85.3424
L-83.4813 -85.2710
" />
<path d="M-83.4813 -85.2710
L-83.4099 -85.1282
" />
<path d="M-83.4099 -85.1282
L-83.4099 -84.6996
" />
<path d="M-83.4099 -84.6996
L-83.4813 -84.5567
" />
<path d="M-83.4813 -84.5567
L-83.5527 -84.4853
" />
<path d="M-83.5527 -84.4853
L-83.6956 -84.4139
" />
<path d="M-83.6956 -84.4139
L-83.9099 -84.4139
" />
<path d="M-82.1242 -84.4139
L-82.1242 -85.1996
" />
<path d="M-82.1242 -85.1996
L-82.1956 -85.3424
" />
<path d="M-82.1956 -85.3424
L-82.3385 -85.4139
" />
<path d="M-82.3385 -85.4139
L-82.6242 -85.4139
" />
<path d="M-82.6242 -85.4139
L-82.7670 -85.3424
" />
<path d="M-82.1242 -84.4853
L-82.2670 -84.4139
" />
<path d="M-82.2670 -84.4139
L-82.6242 -84.4139
" />
<path d="M-82.6242 -84.4139
L-82.7670 -84.4853
" />
<path d="M-82.7670 -84.4853
L-82.8385 -84.6282
" />
<path d="M-82.8385 -84.6282
L-82.8385 -84.7710
" />
<path d="M-82.8385 -84.7710
L-82.7670 -84.9139
" />
<path d="M-82.7670 -84.9139
L-82.6242 -84.9853
" />
<path d="M-82.6242 -84.9853
L-82.2670 -84.9853
" />
<path d="M-82.2670 -84.9853
L-82.1242 -85.0567
" />
<path d="M-81.4099 -84.4139
L-81.4099 -85.4139
" />
<path d="M-81.4099 -85.1282
L-81.3385 -85.2710
" />
<path d="M-81.3385 -85.2710
L-81.2670 -85.3424
" />
<path d="M-81.2670 -85.3424
L-81.1242 -85.4139
" />
<path d="M-81.1242 -85.4139
L-80.9813 -85.4139
" />
<path d="M-79.8385 -84.4139
L-79.8385 -85.9139
" />
<path d="M-79.8385 -84.4853
L-79.9813 -84.4139
" />
<path d="M-79.9813 -84.4139
L-80.2670 -84.4139
" />
<path d="M-80.2670 -84.4139
L-80.4099 -84.4853
" />
<path d="M-80.4099 -84.4853
L-80.4813 -84.5567
" />
<path d="M-80.4813 -84.5567
L-80.5527 -84.6996
" />
<path d="M-80.5527 -84.6996
L-80.5527 -85.1282
" />
<path d="M-80.5527 -85.1282
L-80.4813 -85.2710
" />
<path d="M-80.4813 -85.2710
L-80.4099 -85.3424
" />
<path d="M-80.4099 -85.3424
L-80.2670 -85.4139
" />
<path d="M-80.2670 -85.4139
L-79.9813 -85.4139
" />
<path d="M-79.9813 -85.4139
L-79.8385 -85.3424
" />
<path d="M-79.4813 -84.2710
L-78.3385 -84.2710
" />
<path d="M-77.4813 -85.1996
L-77.9813 -85.1996
" />
<path d="M-77.9813 -84.4139
L-77.9813 -85.9139
" />
<path d="M-77.9813 -85.9139
L-77.2670 -85.9139
" />
<path d="M-76.4099 -85.9139
L-76.1242 -85.9139
" />
<path d="M-76.1242 -85.9139
L-75.9813 -85.8424
" />
<path d="M-75.9813 -85.8424
L-75.8385 -85.6996
" />
<path d="M-75.8385 -85.6996
L-75.7670 -85.4139
" />
<path d="M-75.7670 -85.4139
L-75.7670 -84.9139
" />
<path d="M-75.7670 -84.9139
L-75.8385 -84.6282
" />
<path d="M-75.8385 -84.6282
L-75.9813 -84.4853
" />
<path d="M-75.9813 -84.4853
L-76.1242 -84.4139
" />
<path d="M-76.1242 -84.4139
L-76.4099 -84.4139
" />
<path d="M-76.4099 -84.4139
L-76.5527 -84.4853
" />
<path d="M-76.5527 -84.4853
L-76.6956 -84.6282
" />
<path d="M-76.6956 -84.6282
L-76.7670 -84.9139
" />
<path d="M-76.7670 -84.9139
L-76.7670 -85.4139
" />
<path d="M-76.7670 -85.4139
L-76.6956 -85.6996
" />
<path d="M-76.6956 -85.6996
L-76.5527 -85.8424
" />
<path d="M-76.5527 -85.8424
L-76.4099 -85.9139
" />
<path d="M-75.1956 -85.7710
L-75.1242 -85.8424
" />
<path d="M-75.1242 -85.8424
L-74.9813 -85.9139
" />
<path d="M-74.9813 -85.9139
L-74.6242 -85.9139
" />
<path d="M-74.6242 -85.9139
L-74.4813 -85.8424
" />
<path d="M-74.4813 -85.8424
L-74.4099 -85.7710
" />
<path d="M-74.4099 -85.7710
L-74.3385 -85.6282
" />
<path d="M-74.3385 -85.6282
L-74.3385 -85.4853
" />
<path d="M-74.3385 -85.4853
L-74.4099 -85.2710
" />
<path d="M-74.4099 -85.2710
L-75.2670 -84.4139
" />
<path d="M-75.2670 -84.4139
L-74.3385 -84.4139
" />
<path d="M-73.6956 -84.4139
L-73.6956 -85.9139
" />
<path d="M-73.6956 -85.9139
L-73.3385 -85.9139
" />
<path d="M-73.3385 -85.9139
L-73.1242 -85.8424
" />
<path d="M-73.1242 -85.8424
L-72.9813 -85.6996
" />
<path d="M-72.9813 -85.6996
L-72.9099 -85.5567
" />
<path d="M-72.9099 -85.5567
L-72.8385 -85.2710
" />
<path d="M-72.8385 -85.2710
L-72.8385 -85.0567
" />
<path d="M-72.8385 -85.0567
L-72.9099 -84.7710
" />
<path d="M-72.9099 -84.7710
L-72.9813 -84.6282
" />
<path d="M-72.9813 -84.6282
L-73.1242 -84.4853
" />
<path d="M-73.1242 -84.4853
L-73.3385 -84.4139
" />
<path d="M-73.3385 -84.4139
L-73.6956 -84.4139
" />
<path d="M-72.2670 -84.8424
L-71.5527 -84.8424
" />
<path d="M-72.4099 -84.4139
L-71.9099 -85.9139
" />
<path d="M-71.9099 -85.9139
L-71.4099 -84.4139
" />
<path d="M-70.4099 -85.1996
L-70.1956 -85.1282
" />
<path d="M-70.1956 -85.1282
L-70.1242 -85.0567
" />
<path d="M-70.1242 -85.0567
L-70.0527 -84.9139
" />
<path d="M-70.0527 -84.9139
L-70.0527 -84.6996
" />
<path d="M-70.0527 -84.6996
L-70.1242 -84.5567
" />
<path d="M-70.1242 -84.5567
L-70.1956 -84.4853
" />
<path d="M-70.1956 -84.4853
L-70.3385 -84.4139
" />
<path d="M-70.3385 -84.4139
L-70.9099 -84.4139
" />
<path d="M-70.9099 -84.4139
L-70.9099 -85.9139
" />
<path d="M-70.9099 -85.9139
L-70.4099 -85.9139
" />
<path d="M-70.4099 -85.9139
L-70.2670 -85.8424
" />
<path d="M-70.2670 -85.8424
L-70.1956 -85.7710
" />
<path d="M-70.1956 -85.7710
L-70.1242 -85.6282
" />
<path d="M-70.1242 -85.6282
L-70.1242 -85.4853
" />
<path d="M-70.1242 -85.4853
L-70.1956 -85.3424
" />
<path d="M-70.1956 -85.3424
L-70.2670 -85.2710
" />
<path d="M-70.2670 -85.2710
L-70.4099 -85.1996
" />
<path d="M-70.4099 -85.1996
L-70.9099 -85.1996
" />
<path d="M-68.9099 -85.1996
L-68.6956 -85.1282
" />
<path d="M-68.6956 -85.1282
L-68.6242 -85.0567
" />
<path d="M-68.6242 -85.0567
L-68.5527 -84.9139
" />
<path d="M-68.5527 -84.9139
L-68.5527 -84.6996
" />
<path d="M-68.5527 -84.6996
L-68.6242 -84.5567
" />
<path d="M-68.6242 -84.5567
L-68.6956 -84.4853
" />
<path d="M-68.6956 -84.4853
L-68.8385 -84.4139
" />
<path d="M-68.8385 -84.4139
L-69.4099 -84.4139
" />
<path d="M-69.4099 -84.4139
L-69.4099 -85.9139
" />
<path d="M-69.4099 -85.9139
L-68.9099 -85.9139
" />
<path d="M-68.9099 -85.9139
L-68.7670 -85.8424
" />
<path d="M-68.7670 -85.8424
L-68.6956 -85.7710
" />
<path d="M-68.6956 -85.7710
L-68.6242 -85.6282
" />
<path d="M-68.6242 -85.6282
L-68.6242 -85.4853
" />
<path d="M-68.6242 -85.4853
L-68.6956 -85.3424
" />
<path d="M-68.6956 -85.3424
L-68.7670 -85.2710
" />
<path d="M-68.7670 -85.2710
L-68.9099 -85.1996
" />
<path d="M-68.9099 -85.1996
L-69.4099 -85.1996
" />
<path d="M-67.4099 -85.1996
L-67.9099 -85.1996
" />
<path d="M-67.9099 -84.4139
L-67.9099 -85.9139
" />
<path d="M-67.9099 -85.9139
L-67.1956 -85.9139
" />
<path d="M-66.6242 -84.4139
L-66.6242 -85.9139
" />
<path d="M-66.6242 -85.9139
L-66.2670 -85.9139
" />
<path d="M-66.2670 -85.9139
L-66.0527 -85.8424
" />
<path d="M-66.0527 -85.8424
L-65.9099 -85.6996
" />
<path d="M-65.9099 -85.6996
L-65.8385 -85.5567
" />
<path d="M-65.8385 -85.5567
L-65.7670 -85.2710
" />
<path d="M-65.7670 -85.2710
L-65.7670 -85.0567
" />
<path d="M-65.7670 -85.0567
L-65.8385 -84.7710
" />
<path d="M-65.8385 -84.7710
L-65.9099 -84.6282
" />
<path d="M-65.9099 -84.6282
L-66.0527 -84.4853
" />
<path d="M-66.0527 -84.4853
L-66.2670 -84.4139
" />
<path d="M-66.2670 -84.4139
L-66.6242 -84.4139
" />
<path d="M-64.9099 -85.2710
L-65.0527 -85.3424
" />
<path d="M-65.0527 -85.3424
L-65.1242 -85.4139
" />
<path d="M-65.1242 -85.4139
L-65.1956 -85.5567
" />
<path d="M-65.1956 -85.5567
L-65.1956 -85.6282
" />
<path d="M-65.1956 -85.6282
L-65.1242 -85.7710
" />
<path d="M-65.1242 -85.7710
L-65.0527 -85.8424
" />
<path d="M-65.0527 -85.8424
L-64.9099 -85.9139
" />
<path d="M-64.9099 -85.9139
L-64.6242 -85.9139
" />
<path d="M-64.6242 -85.9139
L-64.4813 -85.8424
" />
<path d="M-64.4813 -85.8424
L-64.4099 -85.7710
" />
<path d="M-64.4099 -85.7710
L-64.3385 -85.6282
" />
<path d="M-64.3385 -85.6282
L-64.3385 -85.5567
" />
<path d="M-64.3385 -85.5567
L-64.4099 -85.4139
" />
<path d="M-64.4099 -85.4139
L-64.4813 -85.3424
" />
<path d="M-64.4813 -85.3424
L-64.6242 -85.2710
" />
<path d="M-64.6242 -85.2710
L-64.9099 -85.2710
" />
<path d="M-64.9099 -85.2710
L-65.0527 -85.1996
" />
<path d="M-65.0527 -85.1996
L-65.1242 -85.1282
" />
<path d="M-65.1242 -85.1282
L-65.1956 -84.9853
" />
<path d="M-65.1956 -84.9853
L-65.1956 -84.6996
" />
<path d="M-65.1956 -84.6996
L-65.1242 -84.5567
" />
<path d="M-65.1242 -84.5567
L-65.0527 -84.4853
" />
<path d="M-65.0527 -84.4853
L-64.9099 -84.4139
" />
<path d="M-64.9099 -84.4139
L-64.6242 -84.4139
" />
<path d="M-64.6242 -84.4139
L-64.4813 -84.4853
" />
<path d="M-64.4813 -84.4853
L-64.4099 -84.5567
" />
<path d="M-64.4099 -84.5567
L-64.3385 -84.6996
" />
<path d="M-64.3385 -84.6996
L-64.3385 -84.9853
" />
<path d="M-64.3385 -84.9853
L-64.4099 -85.1282
" />
<path d="M-64.4099 -85.1282
L-64.4813 -85.1996
" />
<path d="M-64.4813 -85.1996
L-64.6242 -85.2710
" />
<path d="M-63.0527 -85.4139
L-63.0527 -84.4139
" />
<path d="M-63.4099 -85.9853
L-63.7670 -84.9139
" />
<path d="M-63.7670 -84.9139
L-62.8385 -84.9139
" />
<path d="M-62.3385 -85.7710
L-62.2670 -85.8424
" />
<path d="M-62.2670 -85.8424
L-62.1242 -85.9139
" />
<path d="M-62.1242 -85.9139
L-61.7670 -85.9139
" />
<path d="M-61.7670 -85.9139
L-61.6242 -85.8424
" />
<path d="M-61.6242 -85.8424
L-61.5527 -85.7710
" />
<path d="M-61.5527 -85.7710
L-61.4813 -85.6282
" />
<path d="M-61.4813 -85.6282
L-61.4813 -85.4853
" />
<path d="M-61.4813 -85.4853
L-61.5527 -85.2710
" />
<path d="M-61.5527 -85.2710
L-62.4099 -84.4139
" />
<path d="M-62.4099 -84.4139
L-61.4813 -84.4139
" />
<path d="M-60.8385 -84.5567
L-60.7670 -84.4853
" />
<path d="M-60.7670 -84.4853
L-60.8385 -84.4139
" />
<path d="M-60.8385 -84.4139
L-60.9099 -84.4853
" />
<path d="M-60.9099 -84.4853
L-60.8385 -84.5567
" />
<path d="M-60.8385 -84.5567
L-60.8385 -84.4139
" />
<path d="M-60.1242 -84.4139
L-60.1242 -85.9139
" />
<path d="M-59.9813 -84.9853
L-59.5527 -84.4139
" />
<path d="M-59.5527 -85.4139
L-60.1242 -84.8424
" />
<path d="M-58.9099 -84.4139
L-58.9099 -85.4139
" />
<path d="M-58.9099 -85.9139
L-58.9813 -85.8424
" />
<path d="M-58.9813 -85.8424
L-58.9099 -85.7710
" />
<path d="M-58.9099 -85.7710
L-58.8385 -85.8424
" />
<path d="M-58.8385 -85.8424
L-58.9099 -85.9139
" />
<path d="M-58.9099 -85.9139
L-58.9099 -85.7710
" />
<path d="M-57.5527 -84.4853
L-57.6956 -84.4139
" />
<path d="M-57.6956 -84.4139
L-57.9813 -84.4139
" />
<path d="M-57.9813 -84.4139
L-58.1242 -84.4853
" />
<path d="M-58.1242 -84.4853
L-58.1956 -84.5567
" />
<path d="M-58.1956 -84.5567
L-58.2670 -84.6996
" />
<path d="M-58.2670 -84.6996
L-58.2670 -85.1282
" />
<path d="M-58.2670 -85.1282
L-58.1956 -85.2710
" />
<path d="M-58.1956 -85.2710
L-58.1242 -85.3424
" />
<path d="M-58.1242 -85.3424
L-57.9813 -85.4139
" />
<path d="M-57.9813 -85.4139
L-57.6956 -85.4139
" />
<path d="M-57.6956 -85.4139
L-57.5527 -85.3424
" />
<path d="M-56.2670 -84.4139
L-56.2670 -85.1996
" />
<path d="M-56.2670 -85.1996
L-56.3385 -85.3424
" />
<path d="M-56.3385 -85.3424
L-56.4813 -85.4139
" />
<path d="M-56.4813 -85.4139
L-56.7670 -85.4139
" />
<path d="M-56.7670 -85.4139
L-56.9099 -85.3424
" />
<path d="M-56.2670 -84.4853
L-56.4099 -84.4139
" />
<path d="M-56.4099 -84.4139
L-56.7670 -84.4139
" />
<path d="M-56.7670 -84.4139
L-56.9099 -84.4853
" />
<path d="M-56.9099 -84.4853
L-56.9813 -84.6282
" />
<path d="M-56.9813 -84.6282
L-56.9813 -84.7710
" />
<path d="M-56.9813 -84.7710
L-56.9099 -84.9139
" />
<path d="M-56.9099 -84.9139
L-56.7670 -84.9853
" />
<path d="M-56.7670 -84.9853
L-56.4099 -84.9853
" />
<path d="M-56.4099 -84.9853
L-56.2670 -85.0567
" />
<path d="M-54.9099 -84.4139
L-54.9099 -85.9139
" />
<path d="M-54.9099 -84.4853
L-55.0527 -84.4139
" />
<path d="M-55.0527 -84.4139
L-55.3385 -84.4139
" />
<path d="M-55.3385 -84.4139
L-55.4813 -84.4853
" />
<path d="M-55.4813 -84.4853
L-55.5527 -84.5567
" />
<path d="M-55.5527 -84.5567
L-55.6242 -84.6996
" />
<path d="M-55.6242 -84.6996
L-55.6242 -85.1282
" />
<path d="M-55.6242 -85.1282
L-55.5527 -85.2710
" />
<path d="M-55.5527 -85.2710
L-55.4813 -85.3424
" />
<path d="M-55.4813 -85.3424
L-55.3385 -85.4139
" />
<path d="M-55.3385 -85.4139
L-55.0527 -85.4139
" />
<path d="M-55.0527 -85.4139
L-54.9099 -85.3424
" />
<path d="M-54.5527 -84.2710
L-53.4099 -84.2710
" />
<path d="M-53.0527 -85.4139
L-53.0527 -83.9139
" />
<path d="M-53.0527 -85.3424
L-52.9099 -85.4139
" />
<path d="M-52.9099 -85.4139
L-52.6242 -85.4139
" />
<path d="M-52.6242 -85.4139
L-52.4813 -85.3424
" />
<path d="M-52.4813 -85.3424
L-52.4099 -85.2710
" />
<path d="M-52.4099 -85.2710
L-52.3385 -85.1282
" />
<path d="M-52.3385 -85.1282
L-52.3385 -84.6996
" />
<path d="M-52.3385 -84.6996
L-52.4099 -84.5567
" />
<path d="M-52.4099 -84.5567
L-52.4813 -84.4853
" />
<path d="M-52.4813 -84.4853
L-52.6242 -84.4139
" />
<path d="M-52.6242 -84.4139
L-52.9099 -84.4139
" />
<path d="M-52.9099 -84.4139
L-53.0527 -84.4853
" />
<path d="M-51.0527 -84.4853
L-51.1956 -84.4139
" />
<path d="M-51.1956 -84.4139
L-51.4813 -84.4139
" />
<path d="M-51.4813 -84.4139
L-51.6242 -84.4853
" />
<path d="M-51.6242 -84.4853
L-51.6956 -84.5567
" />
<path d="M-51.6956 -84.5567
L-51.7670 -84.6996
" />
<path d="M-51.7670 -84.6996
L-51.7670 -85.1282
" />
<path d="M-51.7670 -85.1282
L-51.6956 -85.2710
" />
<path d="M-51.6956 -85.2710
L-51.6242 -85.3424
" />
<path d="M-51.6242 -85.3424
L-51.4813 -85.4139
" />
<path d="M-51.4813 -85.4139
L-51.1956 -85.4139
" />
<path d="M-51.1956 -85.4139
L-51.0527 -85.3424
" />
<path d="M-50.4099 -84.4139
L-50.4099 -85.9139
" />
<path d="M-50.4099 -85.3424
L-50.2670 -85.4139
" />
<path d="M-50.2670 -85.4139
L-49.9813 -85.4139
" />
<path d="M-49.9813 -85.4139
L-49.8385 -85.3424
" />
<path d="M-49.8385 -85.3424
L-49.7670 -85.2710
" />
<path d="M-49.7670 -85.2710
L-49.6956 -85.1282
" />
<path d="M-49.6956 -85.1282
L-49.6956 -84.6996
" />
<path d="M-49.6956 -84.6996
L-49.7670 -84.5567
" />
<path d="M-49.7670 -84.5567
L-49.8385 -84.4853
" />
<path d="M-49.8385 -84.4853
L-49.9813 -84.4139
" />
<path d="M-49.9813 -84.4139
L-50.2670 -84.4139
" />
<path d="M-50.2670 -84.4139
L-50.4099 -84.4853
" />
</g><path d="M-112.5800 -89.3000
L-4.5800 -89.3000
" />
<text x="-111.5800" y="-87.0500"
textLength="8.2214" font-size="2.0000" lengthAdjust="spacingAndGlyphs"
text-anchor="start" opacity="0" stroke-opacity="0">Sheet: </text>
<g class="stroked-text"><desc>Sheet: </desc>
<path d="M-111.1956 -87.1853
L-110.9813 -87.1139
" />
<path d="M-110.9813 -87.1139
L-110.6242 -87.1139
" />
<path d="M-110.6242 -87.1139
L-110.4813 -87.1853
" />
<path d="M-110.4813 -87.1853
L-110.4099 -87.2567
" />
<path d="M-110.4099 -87.2567
L-110.3385 -87.3996
" />
<path d="M-110.3385 -87.3996
L-110.3385 -87.5424
" />
<path d="M-110.3385 -87.5424
L-110.4099 -87.6853
" />
<path d="M-110.4099 -87.6853
L-110.4813 -87.7567
" />
<path d="M-110.4813 -87.7567
L-110.6242 -87.8282
" />
<path d="M-110.6242 -87.8282
L-110.9099 -87.8996
" />
<path d="M-110.9099 -87.8996
L-111.0527 -87.9710
" />
<path d="M-111.0527 -87.9710
L-111.1242 -88.0424
" />
<path d="M-111.1242 -88.0424
L-111.1956 -88.1853
" />
<path d="M-111.1956 -88.1853
L-111.1956 -88.3282
" />
<path d="M-111.1956 -88.3282
L-111.1242 -88.4710
" />
<path d="M-111.1242 -88.4710
L-111.0527 -88.5424
" />
<path d="M-111.0527 -88.5424
L-110.9099 -88.6139
" />
<path d="M-110.9099 -88.6139
L-110.5527 -88.6139
" />
<path d="M-110.5527 -88.6139
L-110.3385 -88.5424
" />
<path d="M-109.6956 -87.1139
L-109.6956 -88.6139
" />
<path d="M-109.0527 -87.1139
L-109.0527 -87.8996
" />
<path d="M-109.0527 -87.8996
L-109.1242 -88.0424
" />
<path d="M-109.1242 -88.0424
L-109.2670 -88.1139
" />
<path d="M-109.2670 -88.1139
L-109.4813 -88.1139
" />
<path d="M-109.4813 -88.1139
L-109.6242 -88.0424
" />
<path d="M-109.6242 -88.0424
L-109.6956 -87.9710
" />
<path d="M-107.7670 -87.1853
L-107.9099 -87.1139
" />
<path d="M-107.9099 -87.1139
L-108.1956 -87.1139
" />
<path d="M-108.1956 -87.1139
L-108.3385 -87.1853
" />
<path d="M-108.3385 -87.1853
L-108.4099 -87.3282
" />
<path d="M-108.4099 -87.3282
L-108.4099 -87.8996
" />
<path d="M-108.4099 -87.8996
L-108.3385 -88.0424
" />
<path d="M-108.3385 -88.0424
L-108.1956 -88.1139
" />
<path d="M-108.1956 -88.1139
L-107.9099 -88.1139
" />
<path d="M-107.9099 -88.1139
L-107.7670 -88.0424
" />
<path d="M-107.7670 -88.0424
L-107.6956 -87.8996
" />
<path d="M-107.6956 -87.8996
L-107.6956 -87.7567
" />
<path d="M-107.6956 -87.7567
L-108.4099 -87.6139
" />
<path d="M-106.4813 -87.1853
L-106.6242 -87.1139
" />
<path d="M-106.6242 -87.1139
L-106.9099 -87.1139
" />
<path d="M-106.9099 -87.1139
L-107.0527 -87.1853
" />
<path d="M-107.0527 -87.1853
L-107.1242 -87.3282
" />
<path d="M-107.1242 -87.3282
L-107.1242 -87.8996
" />
<path d="M-107.1242 -87.8996
L-107.0527 -88.0424
" />
<path d="M-107.0527 -88.0424
L-106.9099 -88.1139
" />
<path d="M-106.9099 -88.1139
L-106.6242 -88.1139
" />
<path d="M-106.6242 -88.1139
L-106.4813 -88.0424
" />
<path d="M-106.4813 -88.0424
L-106.4099 -87.8996
" />
<path d="M-106.4099 -87.8996
L-106.4099 -87.7567
" />
<path d="M-106.4099 -87.7567
L-107.1242 -87.6139
" />
<path d="M-105.9813 -88.1139
L-105.4099 -88.1139
" />
<path d="M-105.7670 -88.6139
L-105.7670 -87.3282
" />
<path d="M-105.7670 -87.3282
L-105.6956 -87.1853
" />
<path d="M-105.6956 -87.1853
L-105.5527 -87.1139
" />
<path d="M-105.5527 -87.1139
L-105.4099 -87.1139
" />
<path d="M-104.9099 -87.2567
L-104.8385 -87.1853
" />
<path d="M-104.8385 -87.1853
L-104.9099 -87.1139
" />
<path d="M-104.9099 -87.1139
L-104.9813 -87.1853
" />
<path d="M-104.9813 -87.1853
L-104.9099 -87.2567
" />
<path d="M-104.9099 -87.2567
L-104.9099 -87.1139
" />
<path d="M-104.9099 -88.0424
L-104.8385 -87.9710
" />
<path d="M-104.8385 -87.9710
L-104.9099 -87.8996
" />
<path d="M-104.9099 -87.8996
L-104.9813 -87.9710
" />
<path d="M-104.9813 -87.9710
L-104.9099 -88.0424
" />
<path d="M-104.9099 -88.0424
L-104.9099 -87.8996
" />
</g></g>
<g style="fill:none; 
stroke:#C872AB; stroke-width:0.3000; stroke-opacity:1; 
stroke-linecap:round; stroke-linejoin:round;">
<text x="-111.5800" y="-90.0500"
textLength="0.9000" font-size="2.0000" lengthAdjust="spacingAndGlyphs"
text-anchor="start" opacity="0" stroke-opacity="0"></text>
<g class="stroked-text"><desc></desc>
</g></g>
<g style="fill:none; 
stroke:#C872AB; stroke-width:0.1500; stroke-opacity:1; 
stroke-linecap:round; stroke-linejoin:round;">
<text x="-111.5800" y="-93.0500"
textLength="0.4500" font-size="2.0000" lengthAdjust="spacingAndGlyphs"
text-anchor="start" opacity="0" stroke-opacity="0"></text>
<g class="stroked-text"><desc></desc>
</g><text x="-111.5800" y="-96.0500"
textLength="0.4500" font-size="2.0000" lengthAdjust="spacingAndGlyphs"
text-anchor="start" opacity="0" stroke-opacity="0"></text>
<g class="stroked-text"><desc></desc>
</g><text x="-111.5800" y="-99.0500"
textLength="0.4500" font-size="2.0000" lengthAdjust="spacingAndGlyphs"
text-anchor="start" opacity="0" stroke-opacity="0"></text>
<g class="stroked-text"><desc></desc>
</g><text x="-111.5800" y="-102.0500"
textLength="0.4500" font-size="2.0000" lengthAdjust="spacingAndGlyphs"
text-anchor="start" opacity="0" stroke-opacity="0"></text>
<g class="stroked-text"><desc></desc>
</g><path d="M-92.5800 -79.3000
L-92.5800 -76.3000
" />
<path d="M-28.5800 -79.3000
L-28.5800 -72.8000
" />
</g>
<g style="fill:#4D7FC4; fill-opacity:1.0000; stroke:none;">
<circle cx="47.1454" cy="43.1000" r="0.7000" /> 
<circle cx="49.6854" cy="43.1000" r="0.7000" /> 
<path style="fill:#4D7FC4; fill-opacity:1.0000; stroke:none;fill-rule:evenodd;"
d="M 30.8404,38.0225
30.8214,37.9268
30.7672,37.8457
30.6861,37.7915
30.5904,37.7725
28.4904,37.7725
28.3947,37.7915
28.3136,37.8457
28.2594,37.9268
28.2404,38.0225
28.2404,40.1225
28.2594,40.2182
28.3136,40.2993
28.3947,40.3535
28.4904,40.3725
30.5904,40.3725
30.6861,40.3535
30.7672,40.2993
30.8214,40.2182
30.8404,40.1225
Z" /> 
<circle cx="24.4604" cy="39.0725" r="1.3000" /> 
<circle cx="47.1454" cy="38.7000" r="0.7000" /> 
<circle cx="49.6854" cy="38.7000" r="0.7000" /> 
<path style="fill:#4D7FC4; fill-opacity:1.0000; stroke:none;fill-rule:evenodd;"
d="M 42.8404,38.0225
42.8214,37.9268
42.7672,37.8457
42.6861,37.7915
42.5904,37.7725
40.4904,37.7725
40.3947,37.7915
40.3136,37.8457
40.2594,37.9268
40.2404,38.0225
40.2404,40.1225
40.2594,40.2182
40.3136,40.2993
40.3947,40.3535
40.4904,40.3725
42.5904,40.3725
42.6861,40.3535
42.7672,40.2993
42.8214,40.2182
42.8404,40.1225
Z" /> 
<circle cx="36.4604" cy="39.0725" r="1.3000" /> 
<circle cx="85.4954" cy="17.9000" r="0.3000" /> 
<circle cx="84.0954" cy="17.9000" r="0.3000" /> 
<circle cx="86.1954" cy="17.2000" r="0.3000" /> 
<circle cx="84.7954" cy="17.2000" r="0.3000" /> 
<circle cx="83.3954" cy="17.2000" r="0.3000" /> 
<circle cx="85.4954" cy="16.5000" r="0.3000" /> 
<circle cx="84.0954" cy="16.5000" r="0.3000" /> 
<circle cx="86.1954" cy="15.8000" r="0.3000" /> 
<circle cx="84.7954" cy="15.8000" r="0.3000" /> 
<circle cx="83.3954" cy="15.8000" r="0.3000" /> 
<circle cx="85.4954" cy="15.1000" r="0.3000" /> 
<circle cx="84.0954" cy="15.1000" r="0.3000" /> 
<path style="fill:#4D7FC4; fill-opacity:1.0000; stroke:none;fill-rule:evenodd;"
d="M 82.9954,39.2600
82.9954,40.2600
83.9954,40.2600
83.9954,39.2600
Z" /> 
<circle cx="64.9954" cy="20.7000" r="0.5000" /> 
<circle cx="46.7962" cy="27.7520" r="0.5000" /> 
<circle cx="42.9528" cy="35.9308" r="0.3000" /> 
<circle cx="52.3954" cy="30.7000" r="0.3000" /> 
<circle cx="43.6640" cy="39.8170" r="0.3000" /> 
<circle cx="42.0892" cy="43.1952" r="0.3000" /> 
<circle cx="43.1560" cy="43.1952" r="0.3000" /> 
<circle cx="55.9954" cy="22.5000" r="0.3000" /> 
<circle cx="55.1954" cy="21.7000" r="0.3000" /> 
<circle cx="37.7538" cy="18.9128" r="0.3000" /> 
<circle cx="37.6776" cy="16.8300" r="0.3000" /> 
<circle cx="37.7030" cy="17.9222" r="0.3000" /> 
<circle cx="51.5954" cy="30.7000" r="0.3000" /> 
<circle cx="55.9954" cy="21.7000" r="0.3000" /> 
<circle cx="56.7954" cy="23.3000" r="0.3000" /> 
<circle cx="41.9368" cy="37.1754" r="0.3000" /> 
<circle cx="57.5954" cy="21.7000" r="0.3000" /> 
<circle cx="54.3954" cy="22.5000" r="0.3000" /> 
<circle cx="57.5954" cy="22.5000" r="0.3000" /> 
<circle cx="37.2954" cy="24.4000" r="0.3000" /> 
<circle cx="55.9954" cy="23.3000" r="0.3000" /> 
<circle cx="40.9970" cy="37.1754" r="0.3000" /> 
<circle cx="58.5954" cy="30.3000" r="0.3000" /> 
<circle cx="53.1954" cy="30.7000" r="0.3000" /> 
<circle cx="58.5954" cy="28.7000" r="0.3000" /> 
<circle cx="58.5954" cy="29.5000" r="0.3000" /> 
<circle cx="42.9782" cy="37.1246" r="0.3000" /> 
<circle cx="49.5954" cy="21.3000" r="0.3000" /> 
<circle cx="53.9954" cy="30.7000" r="0.3000" /> 
<circle cx="40.9716" cy="43.1952" r="0.3000" /> 
<circle cx="49.7954" cy="30.7000" r="0.3000" /> 
<circle cx="36.5854" cy="18.9128" r="0.3000" /> 
<circle cx="52.9954" cy="21.3000" r="0.3000" /> 
<circle cx="54.3954" cy="21.7000" r="0.3000" /> 
<circle cx="50.7954" cy="30.7000" r="0.3000" /> 
<circle cx="56.7954" cy="24.3000" r="0.3000" /> 
<circle cx="51.9954" cy="21.3000" r="0.3000" /> 
<circle cx="41.0478" cy="35.9308" r="0.3000" /> 
<circle cx="50.7954" cy="21.3000" r="0.3000" /> 
<circle cx="55.1954" cy="22.5000" r="0.3000" /> 
<circle cx="43.6640" cy="38.8518" r="0.3000" /> 
<circle cx="56.7954" cy="22.5000" r="0.3000" /> 
<circle cx="35.4170" cy="17.9730" r="0.3000" /> 
<circle cx="35.4170" cy="19.0144" r="0.3000" /> 
<circle cx="35.6456" cy="24.0944" r="0.3000" /> 
<circle cx="39.9556" cy="43.2206" r="0.3000" /> 
<circle cx="35.3662" cy="16.8554" r="0.3000" /> 
<circle cx="57.5954" cy="23.3000" r="0.3000" /> 
<circle cx="58.5954" cy="31.1000" r="0.3000" /> 
<circle cx="36.5854" cy="17.9222" r="0.3000" /> 
<circle cx="43.6640" cy="40.9092" r="0.3000" /> 
<circle cx="56.7954" cy="33.1000" r="0.3000" /> 
<circle cx="60.3954" cy="33.1000" r="0.3000" /> 
<circle cx="36.2298" cy="24.4246" r="0.3000" /> 
<circle cx="36.5600" cy="16.8554" r="0.3000" /> 
<circle cx="55.9954" cy="24.3000" r="0.3000" /> 
<circle cx="57.5954" cy="24.3000" r="0.3000" /> 
<circle cx="56.7954" cy="21.7000" r="0.3000" /> 
<circle cx="41.8606" cy="35.9308" r="0.3000" /> 
<circle cx="39.5572" cy="26.1518" r="0.3000" /> 
<circle cx="38.3126" cy="26.1518" r="0.3000" /> 
<circle cx="40.8780" cy="27.0916" r="0.3000" /> 
<circle cx="39.5572" cy="27.1170" r="0.3000" /> 
<circle cx="38.3380" cy="27.1424" r="0.3000" /> 
<circle cx="40.8780" cy="26.2026" r="0.3000" /> 
<circle cx="66.9954" cy="20.3800" r="0.3000" /> 
<circle cx="67.3954" cy="21.1800" r="0.3000" /> 
<circle cx="67.9954" cy="20.7800" r="0.3000" /> 
<circle cx="67.3954" cy="22.1000" r="0.3000" /> 
<circle cx="67.9954" cy="21.5800" r="0.3000" /> 
<circle cx="66.7954" cy="21.5800" r="0.3000" /> 
<circle cx="40.6240" cy="29.9618" r="0.3000" /> 
<circle cx="39.5572" cy="28.8696" r="0.3000" /> 
<circle cx="42.0210" cy="29.9110" r="0.3000" /> 
<circle cx="39.7350" cy="29.9618" r="0.3000" /> 
<circle cx="40.6240" cy="31.1556" r="0.3000" /> 
<circle cx="41.9702" cy="28.8188" r="0.3000" /> 
<circle cx="42.0464" cy="31.1810" r="0.3000" /> 
<circle cx="39.7350" cy="31.2064" r="0.3000" /> 
<circle cx="40.6240" cy="28.8442" r="0.3000" /> 
<circle cx="37.3954" cy="26.1000" r="0.3000" /> 
<path style="fill:#4D7FC4; fill-opacity:1.0000; stroke:none;fill-rule:evenodd;"
d="M 48.6524,19.5197
48.6066,19.5725
48.5954,19.6240
48.5954,23.2604
48.6151,23.3274
48.6679,23.3732
48.7168,23.3844
52.7954,23.4704
52.7954,23.4704
53.7610,24.2714
53.8251,24.2991
53.8401,24.3000
54.5954,24.3000
56.5954,25.3000
56.5954,25.3000
57.1632,26.6248
57.2077,26.6787
57.2742,26.7000
57.2772,26.7000
58.1954,26.7000
58.1954,28.3000
50.2217,28.3000
50.1714,28.3107
48.4690,29.0673
48.4158,29.1125
48.3954,29.1793
48.3954,29.1806
48.3954,35.3760
48.4151,35.4430
48.4679,35.4888
48.5194,35.5000
63.6714,35.5000
63.7384,35.4803
63.7842,35.4275
63.7954,35.3760
63.7954,31.3702
63.7757,31.3032
63.7352,31.2639
58.7954,28.3000
58.7954,25.5239
58.7865,25.4778
58.3954,24.5000
58.1982,21.9360
58.1737,21.8711
56.4326,19.5496
56.3766,19.5078
56.3334,19.5000
48.7194,19.5000
Z" /> 
<path style="fill:#4D7FC4; fill-opacity:1.0000; stroke:none;fill-rule:evenodd;"
d="M 33.0803,33.4652
33.0803,33.4658
33.0976,41.3337
33.1017,41.3471
34.3605,43.2100
34.3758,43.2202
34.3803,43.2206
37.9079,43.2206
37.9249,43.2136
37.9299,43.2062
38.7344,41.3710
38.7364,41.3614
38.7364,36.0578
40.1144,33.5022
40.1163,33.4840
40.1047,33.4697
40.0934,33.4669
33.0802,33.4416
Z" /> 
<path style="fill:#4D7FC4; fill-opacity:1.0000; stroke:none;fill-rule:evenodd;"
d="M 33.0111,22.8822
33.0041,22.8992
33.0041,22.8993
33.0106,24.2068
33.0282,27.7788
33.0293,28.0075
33.0328,28.0159
33.0363,28.0244
33.0364,28.0244
33.0364,28.0245
33.0533,28.0314
33.0650,28.0314
33.0697,28.0309
33.0789,28.0291
37.3358,28.0291
37.3528,28.0221
37.3538,28.0210
37.5252,27.8282
37.5252,27.8282
45.0700,27.8029
45.0869,27.7958
45.0939,27.7788
45.0939,27.7784
45.0579,26.0341
37.8959,26.0341
37.8959,26.1659
37.8618,26.2932
37.7959,26.4073
37.7027,26.5005
37.5886,26.5664
37.4613,26.6005
37.4613,26.6005
37.3295,26.6005
37.3295,26.6005
37.2022,26.5664
37.0881,26.5005
36.9949,26.4073
36.9290,26.2932
36.8949,26.1659
36.8949,26.0341
36.9290,25.9068
36.9949,25.7927
37.0881,25.6995
37.2022,25.6336
37.2022,25.6336
37.2022,25.6336
37.2829,25.6120
37.3295,25.5995
37.4613,25.5995
37.4954,25.6086
37.5886,25.6336
37.7027,25.6995
37.7959,25.7927
37.8618,25.9068
37.8868,26.0000
37.8959,26.0341
45.0579,26.0341
45.0229,24.3341
37.7959,24.3341
37.7959,24.4659
37.7881,24.4949
37.7627,24.5897
37.7618,24.5932
37.6959,24.7073
37.6027,24.8005
37.4886,24.8664
37.3613,24.9005
37.3613,24.9005
37.2295,24.9005
37.2295,24.9005
37.1022,24.8664
36.9881,24.8005
36.8949,24.7073
36.8290,24.5932
36.7949,24.4659
36.7949,24.3587
36.7303,24.3587
36.7303,24.4905
36.7120,24.5587
36.6992,24.6066
36.6962,24.6178
36.6303,24.7319
36.5371,24.8251
36.4230,24.8910
36.2957,24.9251
36.2957,24.9251
36.1639,24.9251
36.1639,24.9251
36.0366,24.8910
35.9225,24.8251
35.8293,24.7319
35.7634,24.6178
35.7604,24.6066
35.7492,24.5921
35.7310,24.5897
35.7115,24.5949
35.7115,24.5949
35.5797,24.5949
35.5797,24.5949
35.4524,24.5608
35.3383,24.4949
35.2451,24.4017
35.1792,24.2876
35.1451,24.1603
35.1451,24.0285
35.1792,23.9012
35.2451,23.7871
35.3383,23.6939
35.4524,23.6280
35.4524,23.6280
35.4524,23.6280
35.5331,23.6064
35.5797,23.5939
35.7115,23.5939
35.7456,23.6030
35.8388,23.6280
35.9529,23.6939
36.0461,23.7871
36.1120,23.9012
36.1150,23.9124
36.1262,23.9269
36.1444,23.9293
36.1639,23.9241
36.2957,23.9241
36.3298,23.9332
36.4230,23.9582
36.5371,24.0241
36.6303,24.1173
36.6962,24.2314
36.7112,24.2876
36.7303,24.3587
36.7949,24.3587
36.7949,24.3341
36.8290,24.2068
36.8949,24.0927
36.9881,23.9995
37.1022,23.9336
37.1022,23.9336
37.1022,23.9336
37.1829,23.9120
37.2295,23.8995
37.3613,23.8995
37.3954,23.9086
37.4886,23.9336
37.6027,23.9995
37.6959,24.0927
37.7618,24.2068
37.7684,24.2314
37.7959,24.3341
45.0229,24.3341
44.9933,22.8987
44.9859,22.8819
44.9693,22.8752
33.0281,22.8752
Z" /> 
<path style="fill:#4D7FC4; fill-opacity:1.0000; stroke:none;fill-rule:evenodd;"
d="M 32.3507,14.6273
32.3436,14.6442
32.3436,20.2349
32.3506,20.2519
32.3676,20.2589
32.3676,20.2589
44.1372,20.2349
44.7896,20.2336
44.7896,20.2336
45.1466,20.2336
45.1636,20.2266
45.1706,20.2096
45.1706,14.6949
45.1636,14.6779
45.1467,14.6709
32.3677,14.6203
Z" /> 
<path style="fill:#4D7FC4; fill-opacity:1.0000; stroke:none;fill-rule:evenodd;"
d="M 33.0619,28.2416
33.0549,28.2586
33.0549,28.2587
33.0801,33.4176
33.0801,33.4177
33.0872,33.4347
33.1041,33.4416
34.1216,33.4416
35.1357,33.4490
35.1355,33.4490
35.1357,33.4490
35.1356,33.4490
35.1359,33.4490
38.8875,33.4625
38.8876,33.4625
38.8876,33.4625
45.0955,33.4417
45.1125,33.4346
45.1194,33.4176
45.1194,33.4173
45.0439,28.2582
45.0367,28.2414
45.0199,28.2346
33.0789,28.2346
Z" /> 
<path style="fill:#4D7FC4; fill-opacity:1.0000; stroke:none;fill-rule:evenodd;"
d="M 40.3762,33.8479
40.3593,33.8550
40.3552,33.8605
39.1712,36.0523
39.1683,36.0641
39.2952,43.2206
39.2952,43.2206
39.2931,43.2207
39.2764,43.2281
39.2698,43.2446
39.2698,43.9332
39.2768,43.9502
39.2938,43.9572
45.1131,43.9572
45.1301,43.9502
45.1371,43.9332
45.1371,43.9331
45.1174,36.0641
45.1119,33.8467
45.1048,33.8297
45.0878,33.8227
Z" /> 
<path style="fill:#E8B2A7; fill-opacity:1.0000; stroke:none;fill-rule:evenodd;"
d="M 44.7013,30.8895
49.3238,30.8895
49.3238,29.1987
49.1571,29.1987
48.6007,30.7228
48.1601,30.7228
48.0531,30.4297
47.4747,30.4297
47.4747,30.7228
46.2768,30.7228
46.2768,30.4696
46.2908,30.4590
45.8865,30.4590
45.8865,30.7228
44.8680,30.7228
44.8680,30.4590
45.1897,30.4590
45.1897,29.6501
44.8680,29.6501
44.8680,29.4039
45.0094,29.3953
45.0737,29.3829
45.1221,29.3655
45.1697,29.3356
45.2020,29.2998
45.2226,29.2558
45.2328,29.1987
45.5719,29.1987
45.5719,30.4590
45.8865,30.4590
46.2908,30.4590
46.5519,30.2598
46.6818,30.1514
46.7727,30.0683
46.8846,29.9498
46.9489,29.8606
46.9787,29.7998
46.9957,29.7418
47.0012,29.6853
46.9932,29.6191
46.9707,29.5667
46.9341,29.5249
46.8861,29.4950
46.8232,29.4755
46.7409,29.4684
46.6462,29.4775
46.5426,29.5064
46.4420,29.5497
46.3496,29.6032
46.3168,29.6032
46.3168,29.2646
46.3987,29.2353
46.5314,29.2012
46.6738,29.1773
46.8158,29.1694
46.9615,29.1783
47.0800,29.2027
47.1760,29.2402
47.2533,29.2896
47.3185,29.3549
47.3650,29.4316
47.3938,29.5220
47.4039,29.6294
47.3960,29.7236
47.3721,29.8145
47.3317,29.9033
47.2785,29.9860
47.2060,30.0750
47.1109,30.1711
47.0166,30.2542
46.9233,30.3290
46.7891,30.4297
47.4747,30.4297
48.0531,30.4297
47.6037,29.1987
48.0166,29.1987
48.3855,30.2693
48.7544,29.1987
49.1571,29.1987
49.3238,29.1987
49.3238,29.0027
44.7013,29.0027
Z" /> 
<path style="fill:#E8B2A7; fill-opacity:1.0000; stroke:none;fill-rule:evenodd;"
d="M 65.9288,22.3926
65.9852,22.3926
66.0274,22.3914
66.0588,22.3882
66.0866,22.3808
66.1086,22.3683
66.1254,22.3521
66.1365,22.3352
66.1429,22.3152
66.1454,22.2865
66.1425,22.2607
66.1343,22.2400
66.1201,22.2232
66.0966,22.2095
66.0770,22.2034
66.0531,22.2000
65.9952,22.1983
65.9288,22.1983
Z" /> 
<path style="fill:#E8B2A7; fill-opacity:1.0000; stroke:none;fill-rule:evenodd;"
d="M 63.5600,23.0354
66.5193,23.0354
66.5193,22.9479
65.6629,22.9479
64.9514,22.9479
64.9514,22.8467
65.6629,22.8467
65.6629,22.9479
66.5193,22.9479
66.5193,22.7810
66.4318,22.7810
66.2076,22.7810
66.0134,22.5211
65.9288,22.5211
65.9288,22.7810
65.7461,22.7810
65.7461,22.2065
64.9395,22.2065
64.7172,22.2065
64.7172,22.7810
64.5336,22.7810
64.5336,22.5578
64.2562,22.5578
64.2526,22.5986
64.2421,22.6354
64.2247,22.6691
64.2000,22.7001
64.1670,22.7289
64.1214,22.7563
64.0670,22.7768
64.0021,22.7900
63.9249,22.7947
63.8393,22.7905
63.7706,22.7790
63.7064,22.7611
63.6475,22.7394
63.6475,22.5676
63.6676,22.5676
63.7070,22.5968
63.7494,22.6211
63.7950,22.6406
63.8426,22.6551
63.8876,22.6634
63.9306,22.6661
63.9746,22.6631
64.0005,22.6589
64.0191,22.6531
64.0386,22.6428
64.0537,22.6307
64.0637,22.6148
64.0674,22.5908
64.0625,22.5692
64.0475,22.5503
64.0246,22.5360
63.9894,22.5242
63.9046,22.5063
63.8607,22.4966
63.8206,22.4850
63.7628,22.4614
63.7207,22.4349
63.6913,22.4058
63.6697,22.3706
63.6565,22.3297
63.6518,22.2816
63.6554,22.2432
63.6658,22.2084
63.6831,22.1765
63.7078,22.1468
63.7410,22.1190
63.7866,22.0925
63.8393,22.0728
63.9000,22.0605
63.9703,22.0561
64.0402,22.0595
64.1092,22.0696
64.1752,22.0855
64.2280,22.1036
64.2280,22.2667
64.2084,22.2667
64.1618,22.2353
64.1030,22.2082
64.0609,22.1951
64.0185,22.1873
63.9756,22.1847
63.9299,22.1879
63.9076,22.1925
63.8861,22.2000
63.8688,22.2094
63.8541,22.2227
63.8440,22.2389
63.8407,22.2571
63.8432,22.2749
63.8503,22.2890
63.8622,22.3005
63.8890,22.3134
63.9435,22.3280
64.0188,22.3438
64.0965,22.3649
64.1491,22.3863
64.1886,22.4108
64.2173,22.4379
64.2384,22.4706
64.2516,22.5100
64.2562,22.5578
64.5336,22.5578
64.5336,22.2065
64.3112,22.2065
64.3112,22.0698
64.9395,22.0698
64.9395,22.2065
65.7461,22.2065
65.7461,22.0698
66.0541,22.0698
66.1150,22.0717
66.1626,22.0769
66.2066,22.0883
66.2477,22.1081
66.2839,22.1357
66.3116,22.1700
66.3243,22.1964
66.3324,22.2279
66.3352,22.2655
66.3334,22.2865
66.3308,22.3170
66.3184,22.3594
66.2986,22.3943
66.2718,22.4247
66.2373,22.4523
66.1941,22.4771
66.4318,22.7810
66.5193,22.7810
66.5193,21.9686
63.5600,21.9686
Z" /> 
</g>
<g style="fill:none; 
stroke:#E8B2A7; stroke-width:0.1200; stroke-opacity:1; 
stroke-linecap:round; stroke-linejoin:round;">
<path d="M84.1954 39.0600
L84.1954 40.4600
" />
<path d="M84.1954 40.4600
L82.7954 40.4600
" />
<path d="M82.7954 39.0600
L84.1954 39.0600
" />
<path d="M82.7954 40.4600
L82.7954 39.0600
" />
<circle cx="64.9954" cy="20.7000" r="0.7000" /> 
<circle cx="46.7962" cy="27.7520" r="0.7000" /> 
</g>
<g style="fill:#02FFEE; fill-opacity:0.4000; stroke:none;">
<circle cx="83.9854" cy="37.8450" r="0.3250" /> 
<circle cx="78.2054" cy="37.8450" r="0.3250" /> 
<circle cx="47.1454" cy="43.1000" r="0.7000" /> 
<circle cx="49.6854" cy="43.1000" r="0.7000" /> 
<path style="fill:#02FFEE; fill-opacity:0.4000; stroke:none;fill-rule:evenodd;"
d="M 30.8404,38.0225
30.8214,37.9268
30.7672,37.8457
30.6861,37.7915
30.5904,37.7725
28.4904,37.7725
28.3947,37.7915
28.3136,37.8457
28.2594,37.9268
28.2404,38.0225
28.2404,40.1225
28.2594,40.2182
28.3136,40.2993
28.3947,40.3535
28.4904,40.3725
30.5904,40.3725
30.6861,40.3535
30.7672,40.2993
30.8214,40.2182
30.8404,40.1225
Z" /> 
<circle cx="24.4604" cy="39.0725" r="1.3000" /> 
<circle cx="47.1454" cy="38.7000" r="0.7000" /> 
<circle cx="49.6854" cy="38.7000" r="0.7000" /> 
<path style="fill:#02FFEE; fill-opacity:0.4000; stroke:none;fill-rule:evenodd;"
d="M 42.8404,38.0225
42.8214,37.9268
42.7672,37.8457
42.6861,37.7915
42.5904,37.7725
40.4904,37.7725
40.3947,37.7915
40.3136,37.8457
40.2594,37.9268
40.2404,38.0225
40.2404,40.1225
40.2594,40.2182
40.3136,40.2993
40.3947,40.3535
40.4904,40.3725
42.5904,40.3725
42.6861,40.3535
42.7672,40.2993
42.8214,40.2182
42.8404,40.1225
Z" /> 
<circle cx="36.4604" cy="39.0725" r="1.3000" /> 
<path style="fill:#02FFEE; fill-opacity:0.4000; stroke:none;fill-rule:evenodd;"
d="M 82.9954,39.2600
82.9954,40.2600
83.9954,40.2600
83.9954,39.2600
Z" /> 
<circle cx="64.9954" cy="20.7000" r="0.5000" /> 
<circle cx="46.7962" cy="27.7520" r="0.5000" /> 
<path style="fill:none; 
stroke:#D0D2CD; stroke-width:0.2000; stroke-opacity:1; 
stroke-linecap:round; stroke-linejoin:round;fill:none"
d="M 94.0054,0.0000
-0.0046,0.0000
-0.0046,48.1000
94.0054,48.1000
Z" /> 
</g>
<g style="fill:#FFFFFF; fill-opacity:1.0000; stroke:none;">
<circle cx="42.9528" cy="35.9308" r="0.1500" /> 
<circle cx="52.3954" cy="30.7000" r="0.1500" /> 
<circle cx="43.6640" cy="39.8170" r="0.1500" /> 
<circle cx="42.0892" cy="43.1952" r="0.1500" /> 
<circle cx="43.1560" cy="43.1952" r="0.1500" /> 
<circle cx="55.9954" cy="22.5000" r="0.1500" /> 
<circle cx="55.1954" cy="21.7000" r="0.1500" /> 
<circle cx="37.7538" cy="18.9128" r="0.1500" /> 
<circle cx="37.6776" cy="16.8300" r="0.1500" /> 
<circle cx="37.7030" cy="17.9222" r="0.1500" /> 
<circle cx="51.5954" cy="30.7000" r="0.1500" /> 
<circle cx="55.9954" cy="21.7000" r="0.1500" /> 
<circle cx="56.7954" cy="23.3000" r="0.1500" /> 
<circle cx="41.9368" cy="37.1754" r="0.1500" /> 
<circle cx="57.5954" cy="21.7000" r="0.1500" /> 
<circle cx="54.3954" cy="22.5000" r="0.1500" /> 
<circle cx="57.5954" cy="22.5000" r="0.1500" /> 
<circle cx="37.2954" cy="24.4000" r="0.1500" /> 
<circle cx="55.9954" cy="23.3000" r="0.1500" /> 
<circle cx="40.9970" cy="37.1754" r="0.1500" /> 
<circle cx="58.5954" cy="30.3000" r="0.1500" /> 
<circle cx="53.1954" cy="30.7000" r="0.1500" /> 
<circle cx="58.5954" cy="28.7000" r="0.1500" /> 
<circle cx="58.5954" cy="29.5000" r="0.1500" /> 
<circle cx="42.9782" cy="37.1246" r="0.1500" /> 
<circle cx="49.5954" cy="21.3000" r="0.1500" /> 
<circle cx="53.9954" cy="30.7000" r="0.1500" /> 
<circle cx="40.9716" cy="43.1952" r="0.1500" /> 
<circle cx="49.7954" cy="30.7000" r="0.1500" /> 
<circle cx="36.5854" cy="18.9128" r="0.1500" /> 
<circle cx="52.9954" cy="21.3000" r="0.1500" /> 
<circle cx="54.3954" cy="21.7000" r="0.1500" /> 
<circle cx="50.7954" cy="30.7000" r="0.1500" /> 
<circle cx="56.7954" cy="24.3000" r="0.1500" /> 
<circle cx="51.9954" cy="21.3000" r="0.1500" /> 
<circle cx="41.0478" cy="35.9308" r="0.1500" /> 
<circle cx="50.7954" cy="21.3000" r="0.1500" /> 
<circle cx="55.1954" cy="22.5000" r="0.1500" /> 
<circle cx="43.6640" cy="38.8518" r="0.1500" /> 
<circle cx="56.7954" cy="22.5000" r="0.1500" /> 
<circle cx="35.4170" cy="17.9730" r="0.1500" /> 
<circle cx="35.4170" cy="19.0144" r="0.1500" /> 
<circle cx="35.6456" cy="24.0944" r="0.1500" /> 
<circle cx="39.9556" cy="43.2206" r="0.1500" /> 
<circle cx="35.3662" cy="16.8554" r="0.1500" /> 
<circle cx="57.5954" cy="23.3000" r="0.1500" /> 
<circle cx="58.5954" cy="31.1000" r="0.1500" /> 
<circle cx="36.5854" cy="17.9222" r="0.1500" /> 
<circle cx="43.6640" cy="40.9092" r="0.1500" /> 
<circle cx="56.7954" cy="33.1000" r="0.1500" /> 
<circle cx="60.3954" cy="33.1000" r="0.1500" /> 
<circle cx="36.2298" cy="24.4246" r="0.1500" /> 
<circle cx="36.5600" cy="16.8554" r="0.1500" /> 
<circle cx="55.9954" cy="24.3000" r="0.1500" /> 
<circle cx="57.5954" cy="24.3000" r="0.1500" /> 
<circle cx="56.7954" cy="21.7000" r="0.1500" /> 
<circle cx="41.8606" cy="35.9308" r="0.1500" /> 
<circle cx="39.5572" cy="26.1518" r="0.1500" /> 
<circle cx="38.3126" cy="26.1518" r="0.1500" /> 
<circle cx="40.8780" cy="27.0916" r="0.1500" /> 
<circle cx="39.5572" cy="27.1170" r="0.1500" /> 
<circle cx="38.3380" cy="27.1424" r="0.1500" /> 
<circle cx="40.8780" cy="26.2026" r="0.1500" /> 
<circle cx="66.9954" cy="20.3800" r="0.1500" /> 
<circle cx="67.3954" cy="21.1800" r="0.1500" /> 
<circle cx="67.9954" cy="20.7800" r="0.1500" /> 
<circle cx="67.3954" cy="22.1000" r="0.1500" /> 
<circle cx="67.9954" cy="21.5800" r="0.1500" /> 
<circle cx="66.7954" cy="21.5800" r="0.1500" /> 
<circle cx="40.6240" cy="29.9618" r="0.1500" /> 
<circle cx="39.5572" cy="28.8696" r="0.1500" /> 
<circle cx="42.0210" cy="29.9110" r="0.1500" /> 
<circle cx="39.7350" cy="29.9618" r="0.1500" /> 
<circle cx="40.6240" cy="31.1556" r="0.1500" /> 
<circle cx="41.9702" cy="28.8188" r="0.1500" /> 
<circle cx="42.0464" cy="31.1810" r="0.1500" /> 
<circle cx="39.7350" cy="31.2064" r="0.1500" /> 
<circle cx="40.6240" cy="28.8442" r="0.1500" /> 
<circle cx="37.3954" cy="26.1000" r="0.1500" /> 
</g>
<g style="fill:#000000; fill-opacity:1.0000; stroke:none;">
<circle cx="83.9854" cy="37.8450" r="0.3250" /> 
<circle cx="78.2054" cy="37.8450" r="0.3250" /> 
</g>
<g style="fill:#FFFFFF; fill-opacity:1.0000; stroke:none;">
<circle cx="47.1454" cy="43.1000" r="0.4000" /> 
</g>
<g style="fill:#FFFFFF; fill-opacity:1.0000; stroke:none;">
<circle cx="49.6854" cy="43.1000" r="0.4000" /> 
</g>
<g style="fill:#FFFFFF; fill-opacity:1.0000; stroke:none;">
<circle cx="29.5404" cy="39.0725" r="0.6500" /> 
</g>
<g style="fill:#FFFFFF; fill-opacity:1.0000; stroke:none;">
<circle cx="24.4604" cy="39.0725" r="0.6500" /> 
</g>
<g style="fill:#FFFFFF; fill-opacity:1.0000; stroke:none;">
<circle cx="47.1454" cy="38.7000" r="0.4000" /> 
</g>
<g style="fill:#FFFFFF; fill-opacity:1.0000; stroke:none;">
<circle cx="49.6854" cy="38.7000" r="0.4000" /> 
</g>
<g style="fill:#FFFFFF; fill-opacity:1.0000; stroke:none;">
<circle cx="41.5404" cy="39.0725" r="0.6500" /> 
</g>
<g style="fill:#FFFFFF; fill-opacity:1.0000; stroke:none;">
<circle cx="36.4604" cy="39.0725" r="0.6500" /> 
</g>
<g style="fill:#FFFFFF; fill-opacity:1.0000; stroke:none;">
<circle cx="85.4954" cy="17.9000" r="0.1000" /> 
</g>
<g style="fill:#FFFFFF; fill-opacity:1.0000; stroke:none;">
<circle cx="84.0954" cy="17.9000" r="0.1000" /> 
</g>
<g style="fill:#FFFFFF; fill-opacity:1.0000; stroke:none;">
<circle cx="86.1954" cy="17.2000" r="0.1000" /> 
</g>
<g style="fill:#FFFFFF; fill-opacity:1.0000; stroke:none;">
<circle cx="84.7954" cy="17.2000" r="0.1000" /> 
</g>
<g style="fill:#FFFFFF; fill-opacity:1.0000; stroke:none;">
<circle cx="83.3954" cy="17.2000" r="0.1000" /> 
</g>
<g style="fill:#FFFFFF; fill-opacity:1.0000; stroke:none;">
<circle cx="85.4954" cy="16.5000" r="0.1000" /> 
</g>
<g style="fill:#FFFFFF; fill-opacity:1.0000; stroke:none;">
<circle cx="84.0954" cy="16.5000" r="0.1000" /> 
</g>
<g style="fill:#FFFFFF; fill-opacity:1.0000; stroke:none;">
<circle cx="86.1954" cy="15.8000" r="0.1000" /> 
</g>
<g style="fill:#FFFFFF; fill-opacity:1.0000; stroke:none;">
<circle cx="84.7954" cy="15.8000" r="0.1000" /> 
</g>
<g style="fill:#FFFFFF; fill-opacity:1.0000; stroke:none;">
<circle cx="83.3954" cy="15.8000" r="0.1000" /> 
</g>
<g style="fill:#FFFFFF; fill-opacity:1.0000; stroke:none;">
<circle cx="85.4954" cy="15.1000" r="0.1000" /> 
</g>
<g style="fill:#FFFFFF; fill-opacity:1.0000; stroke:none;">
<circle cx="84.0954" cy="15.1000" r="0.1000" /> 
</g> 
</svg>
